G04*
G04 #@! TF.GenerationSoftware,Altium Limited,Altium Designer,18.1.7 (191)*
G04*
G04 Layer_Color=8421504*
%FSLAX25Y25*%
%MOIN*%
G70*
G01*
G75*
%ADD20R,0.09055X0.15748*%
%ADD21R,0.09055X0.17323*%
%ADD22R,0.01575X0.03740*%
%ADD23R,0.01181X0.03150*%
%ADD24R,0.01181X0.02559*%
%ADD25R,0.04331X0.10236*%
%ADD26O,0.05512X0.01772*%
%ADD27R,0.06693X0.04331*%
%ADD28R,0.04331X0.06693*%
%ADD29O,0.07284X0.02362*%
%ADD30R,0.10236X0.04331*%
%ADD31R,0.06000X0.06000*%
%ADD32R,0.11000X0.15000*%
%ADD33R,0.04134X0.02756*%
%ADD34O,0.02362X0.05709*%
%ADD35R,0.04724X0.04724*%
%ADD36R,0.05906X0.06299*%
%ADD37R,0.03937X0.02362*%
%ADD38R,0.05906X0.05906*%
%ADD39R,0.02800X0.05300*%
%ADD40R,0.01972X0.04769*%
D20*
X109200Y93100D02*
D03*
D21*
Y30108D02*
D03*
D22*
X249599Y27060D02*
D03*
X199206D02*
D03*
D23*
X246843Y25977D02*
D03*
X244481D02*
D03*
X242119D02*
D03*
X239757D02*
D03*
X237395D02*
D03*
X235032D02*
D03*
X232670D02*
D03*
X230308D02*
D03*
X227946D02*
D03*
X225584D02*
D03*
X223221D02*
D03*
X220859D02*
D03*
X218497D02*
D03*
X216135D02*
D03*
X213772D02*
D03*
X211410D02*
D03*
X209048D02*
D03*
X206686D02*
D03*
X204324D02*
D03*
X201961D02*
D03*
D24*
X245662Y37296D02*
D03*
X243300D02*
D03*
X240938D02*
D03*
X238576D02*
D03*
X236213D02*
D03*
X233851D02*
D03*
X231489D02*
D03*
X229127D02*
D03*
X226765D02*
D03*
X224402D02*
D03*
X222040D02*
D03*
X219678D02*
D03*
X217316D02*
D03*
X214954D02*
D03*
X212591D02*
D03*
X210229D02*
D03*
X207867D02*
D03*
X205505D02*
D03*
X203143D02*
D03*
D25*
X161485Y66500D02*
D03*
X172115D02*
D03*
X295761Y86348D02*
D03*
X306391D02*
D03*
X323200Y140200D02*
D03*
X333830D02*
D03*
X331336Y83132D02*
D03*
X320706D02*
D03*
X330499Y33077D02*
D03*
X319869D02*
D03*
X348068Y86051D02*
D03*
X358698D02*
D03*
X348523Y64159D02*
D03*
X359153D02*
D03*
X348523Y51959D02*
D03*
X359153D02*
D03*
X359298Y14251D02*
D03*
X348668D02*
D03*
X377953Y27559D02*
D03*
X367323D02*
D03*
X377953Y39759D02*
D03*
X367323D02*
D03*
X375753Y51959D02*
D03*
X365123D02*
D03*
D26*
X177514Y22743D02*
D03*
Y25302D02*
D03*
Y27861D02*
D03*
Y30420D02*
D03*
Y32979D02*
D03*
Y35538D02*
D03*
Y38098D02*
D03*
Y40657D02*
D03*
X154286Y22743D02*
D03*
Y25302D02*
D03*
Y27861D02*
D03*
Y30420D02*
D03*
Y32979D02*
D03*
Y35538D02*
D03*
Y38098D02*
D03*
Y40657D02*
D03*
D27*
X71574Y100180D02*
D03*
Y110810D02*
D03*
X9574Y97610D02*
D03*
Y86980D02*
D03*
X300800Y63815D02*
D03*
Y53185D02*
D03*
X374524Y197166D02*
D03*
Y207796D02*
D03*
X374846Y169966D02*
D03*
Y180596D02*
D03*
X292584Y34392D02*
D03*
Y23762D02*
D03*
X366438Y75074D02*
D03*
Y64444D02*
D03*
D28*
X46388Y108795D02*
D03*
X35759D02*
D03*
X320621Y73432D02*
D03*
X331251D02*
D03*
X306615Y96600D02*
D03*
X295985D02*
D03*
X315430Y153600D02*
D03*
X304800D02*
D03*
X315430Y162000D02*
D03*
X304800D02*
D03*
X291869Y10877D02*
D03*
X302499D02*
D03*
X348323Y75059D02*
D03*
X358953D02*
D03*
X310699Y34477D02*
D03*
X300069D02*
D03*
X377953Y17159D02*
D03*
X367323D02*
D03*
D29*
X60158Y65177D02*
D03*
Y70177D02*
D03*
Y75177D02*
D03*
Y80177D02*
D03*
Y85177D02*
D03*
Y90177D02*
D03*
Y95177D02*
D03*
Y100177D02*
D03*
X22953Y65177D02*
D03*
Y70177D02*
D03*
Y75177D02*
D03*
Y80177D02*
D03*
Y85177D02*
D03*
Y90177D02*
D03*
Y95177D02*
D03*
Y100177D02*
D03*
D30*
X9574Y80910D02*
D03*
Y70280D02*
D03*
X345515Y165315D02*
D03*
Y154685D02*
D03*
D31*
X25116Y44218D02*
D03*
Y34218D02*
D03*
Y24218D02*
D03*
Y14218D02*
D03*
D32*
X347205Y123447D02*
D03*
X377205D02*
D03*
D33*
X299761Y23742D02*
D03*
X309800Y27483D02*
D03*
Y20002D02*
D03*
D34*
X330400Y64900D02*
D03*
X325400D02*
D03*
X320400D02*
D03*
X315400D02*
D03*
X330400Y43443D02*
D03*
X325400D02*
D03*
X320400D02*
D03*
X315400D02*
D03*
X296000Y105944D02*
D03*
X301000D02*
D03*
X306000D02*
D03*
X311000D02*
D03*
X296000Y127400D02*
D03*
X301000D02*
D03*
X306000D02*
D03*
X311000D02*
D03*
D35*
X292095Y53237D02*
D03*
Y45363D02*
D03*
D36*
X279300Y49300D02*
D03*
D37*
X330499Y19349D02*
D03*
X319869Y14822D02*
D03*
Y23877D02*
D03*
D38*
X385324Y196991D02*
D03*
Y210771D02*
D03*
X385124Y169991D02*
D03*
Y183771D02*
D03*
D39*
X324715Y165350D02*
D03*
Y152650D02*
D03*
X334169Y152643D02*
D03*
Y165343D02*
D03*
X358438Y39109D02*
D03*
Y26409D02*
D03*
X348523D02*
D03*
Y39109D02*
D03*
D40*
X379178Y91287D02*
D03*
X375438D02*
D03*
X371698D02*
D03*
Y82231D02*
D03*
X379178D02*
D03*
M02*
