G04*
G04 #@! TF.GenerationSoftware,Altium Limited,Altium Designer,18.1.7 (191)*
G04*
G04 Layer_Color=2752767*
%FSLAX25Y25*%
%MOIN*%
G70*
G01*
G75*
%ADD98C,0.00200*%
%ADD102C,0.00267*%
D98*
X25324Y240281D02*
Y241881D01*
X26924D01*
Y240281D01*
X25324D01*
X15324D02*
Y241881D01*
X16924D01*
Y240281D01*
X15324D01*
X25324Y270281D02*
Y271881D01*
X26924D01*
Y270281D01*
X25324D01*
X15324D02*
Y271881D01*
X16924D01*
Y270281D01*
X15324D01*
X6716Y47618D02*
Y49218D01*
X8316D01*
Y47618D01*
X6716D01*
Y37618D02*
Y39218D01*
X8316D01*
Y37618D01*
X6716D01*
Y27618D02*
Y29218D01*
X8316D01*
Y27618D01*
X6716D01*
Y17618D02*
Y19218D01*
X8316D01*
Y17618D01*
X6716D01*
Y7618D02*
Y9218D01*
X8316D01*
Y7618D01*
X6716D01*
X383554Y231118D02*
X382754Y232718D01*
X384354D01*
X383554Y231118D01*
Y253362D02*
X382754Y254962D01*
X384354D01*
X383554Y253362D01*
X375090Y250114D02*
X375490Y250514D01*
X375890D01*
X375490Y250914D01*
X375890Y251314D01*
X375490D01*
X375090Y251714D01*
X374690Y251314D01*
X374290D01*
X374690Y250914D01*
X374290Y250514D01*
X374690D01*
X375090Y250114D01*
Y234366D02*
X375490Y234766D01*
X375890D01*
X375490Y235166D01*
X375890Y235566D01*
X375490D01*
X375090Y235966D01*
X374690Y235566D01*
X374290D01*
X374690Y235166D01*
X374290Y234766D01*
X374690D01*
X375090Y234366D01*
X191824Y130400D02*
Y132000D01*
X193424D01*
Y130400D01*
X191824D01*
X181824D02*
Y132000D01*
X183424D01*
Y130400D01*
X181824D01*
X171824D02*
Y132000D01*
X173424D01*
Y130400D01*
X171824D01*
X161824D02*
Y132000D01*
X163424D01*
Y130400D01*
X161824D01*
X151824D02*
Y132000D01*
X153424D01*
Y130400D01*
X151824D01*
X141824D02*
Y132000D01*
X143424D01*
Y130400D01*
X141824D01*
X131824D02*
Y132000D01*
X133424D01*
Y130400D01*
X131824D01*
X121824D02*
Y132000D01*
X123424D01*
Y130400D01*
X121824D01*
X111824D02*
Y132000D01*
X113424D01*
Y130400D01*
X111824D01*
X101824D02*
Y132000D01*
X103424D01*
Y130400D01*
X101824D01*
X91824D02*
Y132000D01*
X93424D01*
Y130400D01*
X91824D01*
X81824D02*
Y132000D01*
X83424D01*
Y130400D01*
X81824D01*
X71824D02*
Y132000D01*
X73424D01*
Y130400D01*
X71824D01*
X61824D02*
Y132000D01*
X63424D01*
Y130400D01*
X61824D01*
X51824D02*
Y132000D01*
X53424D01*
Y130400D01*
X51824D01*
X41824D02*
Y132000D01*
X43424D01*
Y130400D01*
X41824D01*
X31824D02*
Y132000D01*
X33424D01*
Y130400D01*
X31824D01*
X21824D02*
Y132000D01*
X23424D01*
Y130400D01*
X21824D01*
X11824D02*
Y132000D01*
X13424D01*
Y130400D01*
X11824D01*
X191824Y220400D02*
Y222000D01*
X193424D01*
Y220400D01*
X191824D01*
X181824D02*
Y222000D01*
X183424D01*
Y220400D01*
X181824D01*
X171824D02*
Y222000D01*
X173424D01*
Y220400D01*
X171824D01*
X161824D02*
Y222000D01*
X163424D01*
Y220400D01*
X161824D01*
X151824D02*
Y222000D01*
X153424D01*
Y220400D01*
X151824D01*
X141824D02*
Y222000D01*
X143424D01*
Y220400D01*
X141824D01*
X131824D02*
Y222000D01*
X133424D01*
Y220400D01*
X131824D01*
X121824D02*
Y222000D01*
X123424D01*
Y220400D01*
X121824D01*
X111824D02*
Y222000D01*
X113424D01*
Y220400D01*
X111824D01*
X101824D02*
Y222000D01*
X103424D01*
Y220400D01*
X101824D01*
X91824D02*
Y222000D01*
X93424D01*
Y220400D01*
X91824D01*
X81824D02*
Y222000D01*
X83424D01*
Y220400D01*
X81824D01*
X71824D02*
Y222000D01*
X73424D01*
Y220400D01*
X71824D01*
X61824D02*
Y222000D01*
X63424D01*
Y220400D01*
X61824D01*
X51824D02*
Y222000D01*
X53424D01*
Y220400D01*
X51824D01*
X41824D02*
Y222000D01*
X43424D01*
Y220400D01*
X41824D01*
X31824D02*
Y222000D01*
X33424D01*
Y220400D01*
X31824D01*
X21824D02*
Y222000D01*
X23424D01*
Y220400D01*
X21824D01*
X11824D02*
Y222000D01*
X13424D01*
Y220400D01*
X11824D01*
X300400Y72132D02*
X300800Y72932D01*
X300400Y73732D01*
X301200Y73332D01*
X302000Y73732D01*
X301600Y72932D01*
X302000Y72132D01*
X301200Y72532D01*
X300400Y72132D01*
X387100Y159845D02*
X387500Y160645D01*
X387100Y161445D01*
X387900Y161045D01*
X388700Y161445D01*
X388300Y160645D01*
X388700Y159845D01*
X387900Y160245D01*
X387100Y159845D01*
X369100Y159700D02*
X369500Y160500D01*
X369100Y161300D01*
X369900Y160900D01*
X370700Y161300D01*
X370300Y160500D01*
X370700Y159700D01*
X369900Y160100D01*
X369100Y159700D01*
X313592Y26800D02*
X313992Y27600D01*
X313592Y28400D01*
X314392Y28000D01*
X315192Y28400D01*
X314792Y27600D01*
X315192Y26800D01*
X314392Y27200D01*
X313592Y26800D01*
X325500Y14500D02*
X325900Y15300D01*
X325500Y16100D01*
X326300Y15700D01*
X327100Y16100D01*
X326700Y15300D01*
X327100Y14500D01*
X326300Y14900D01*
X325500Y14500D01*
X325700Y22500D02*
X326100Y23300D01*
X325700Y24100D01*
X326500Y23700D01*
X327300Y24100D01*
X326900Y23300D01*
X327300Y22500D01*
X326500Y22900D01*
X325700Y22500D01*
X371600Y14119D02*
X372000Y14919D01*
X371600Y15719D01*
X372400Y15319D01*
X373200Y15719D01*
X372800Y14919D01*
X373200Y14119D01*
X372400Y14519D01*
X371600Y14119D01*
X369400Y48400D02*
X369800Y49200D01*
X369400Y50000D01*
X370200Y49600D01*
X371000Y50000D01*
X370600Y49200D01*
X371000Y48400D01*
X370200Y48800D01*
X369400Y48400D01*
X371500Y61600D02*
X371900Y62400D01*
X371500Y63200D01*
X372300Y62800D01*
X373100Y63200D01*
X372700Y62400D01*
X373100Y61600D01*
X372300Y62000D01*
X371500Y61600D01*
X371556Y70100D02*
X371956Y70900D01*
X371556Y71700D01*
X372356Y71300D01*
X373156Y71700D01*
X372756Y70900D01*
X373156Y70100D01*
X372356Y70500D01*
X371556Y70100D01*
X365300Y68900D02*
X365700Y69700D01*
X365300Y70500D01*
X366100Y70100D01*
X366900Y70500D01*
X366500Y69700D01*
X366900Y68900D01*
X366100Y69300D01*
X365300Y68900D01*
X353100Y79061D02*
X353500Y79861D01*
X353100Y80661D01*
X353900Y80261D01*
X354700Y80661D01*
X354300Y79861D01*
X354700Y79061D01*
X353900Y79461D01*
X353100Y79061D01*
X353000Y57300D02*
X353400Y58100D01*
X353000Y58900D01*
X353800Y58500D01*
X354600Y58900D01*
X354200Y58100D01*
X354600Y57300D01*
X353800Y57700D01*
X353000Y57300D01*
X352400Y21500D02*
X352800Y22300D01*
X352400Y23100D01*
X353200Y22700D01*
X354000Y23100D01*
X353600Y22300D01*
X354000Y21500D01*
X353200Y21900D01*
X352400Y21500D01*
X357638Y31705D02*
X358038Y32505D01*
X357638Y33305D01*
X358438Y32905D01*
X359238Y33305D01*
X358838Y32505D01*
X359238Y31705D01*
X358438Y32105D01*
X357638Y31705D01*
X352000Y43200D02*
X352400Y44000D01*
X352000Y44800D01*
X352800Y44400D01*
X353600Y44800D01*
X353200Y44000D01*
X353600Y43200D01*
X352800Y43600D01*
X352000Y43200D01*
X328749Y149800D02*
X329149Y150600D01*
X328749Y151400D01*
X329549Y151000D01*
X330349Y151400D01*
X329949Y150600D01*
X330349Y149800D01*
X329549Y150200D01*
X328749Y149800D01*
X319500Y149700D02*
X319900Y150500D01*
X319500Y151300D01*
X320300Y150900D01*
X321100Y151300D01*
X320700Y150500D01*
X321100Y149700D01*
X320300Y150100D01*
X319500Y149700D01*
X293432Y134400D02*
X293832Y135200D01*
X293432Y136000D01*
X294232Y135600D01*
X295032Y136000D01*
X294632Y135200D01*
X295032Y134400D01*
X294232Y134800D01*
X293432Y134400D01*
X287933Y126700D02*
X288333Y127500D01*
X287933Y128300D01*
X288733Y127900D01*
X289533Y128300D01*
X289133Y127500D01*
X289533Y126700D01*
X288733Y127100D01*
X287933Y126700D01*
X300400Y113100D02*
X300800Y113900D01*
X300400Y114700D01*
X301200Y114300D01*
X302000Y114700D01*
X301600Y113900D01*
X302000Y113100D01*
X301200Y113500D01*
X300400Y113100D01*
X287900Y107100D02*
X288300Y107900D01*
X287900Y108700D01*
X288700Y108300D01*
X289500Y108700D01*
X289100Y107900D01*
X289500Y107100D01*
X288700Y107500D01*
X287900Y107100D01*
X287692Y83800D02*
X288092Y84600D01*
X287692Y85400D01*
X288492Y85000D01*
X289292Y85400D01*
X288892Y84600D01*
X289292Y83800D01*
X288492Y84200D01*
X287692Y83800D01*
Y68600D02*
X288092Y69400D01*
X287692Y70200D01*
X288492Y69800D01*
X289292Y70200D01*
X288892Y69400D01*
X289292Y68600D01*
X288492Y69000D01*
X287692Y68600D01*
X15600Y15963D02*
X16000Y16763D01*
X15600Y17563D01*
X16400Y17163D01*
X17200Y17563D01*
X16800Y16763D01*
X17200Y15963D01*
X16400Y16363D01*
X15600Y15963D01*
X15500Y33918D02*
X15900Y34718D01*
X15500Y35518D01*
X16300Y35118D01*
X17100Y35518D01*
X16700Y34718D01*
X17100Y33918D01*
X16300Y34318D01*
X15500Y33918D01*
X45700Y163958D02*
X46100Y164758D01*
X45700Y165558D01*
X46500Y165158D01*
X47300Y165558D01*
X46900Y164758D01*
X47300Y163958D01*
X46500Y164358D01*
X45700Y163958D01*
X135400Y15100D02*
X135800Y15900D01*
X135400Y16700D01*
X136200Y16300D01*
X137000Y16700D01*
X136600Y15900D01*
X137000Y15100D01*
X136200Y15500D01*
X135400Y15100D01*
X162100Y15000D02*
X162500Y15800D01*
X162100Y16600D01*
X162900Y16200D01*
X163700Y16600D01*
X163300Y15800D01*
X163700Y15000D01*
X162900Y15400D01*
X162100Y15000D01*
X390200Y80800D02*
X390600Y81600D01*
X390200Y82400D01*
X391000Y82000D01*
X391800Y82400D01*
X391400Y81600D01*
X391800Y80800D01*
X391000Y81200D01*
X390200Y80800D01*
X390100Y69700D02*
X390500Y70500D01*
X390100Y71300D01*
X390900Y70900D01*
X391700Y71300D01*
X391300Y70500D01*
X391700Y69700D01*
X390900Y70100D01*
X390100Y69700D01*
X390000Y57500D02*
X390400Y58300D01*
X390000Y59100D01*
X390800Y58700D01*
X391600Y59100D01*
X391200Y58300D01*
X391600Y57500D01*
X390800Y57900D01*
X390000Y57500D01*
X389900Y44500D02*
X390300Y45300D01*
X389900Y46100D01*
X390700Y45700D01*
X391500Y46100D01*
X391100Y45300D01*
X391500Y44500D01*
X390700Y44900D01*
X389900Y44500D01*
Y32179D02*
X390300Y32979D01*
X389900Y33779D01*
X390700Y33379D01*
X391500Y33779D01*
X391100Y32979D01*
X391500Y32179D01*
X390700Y32579D01*
X389900Y32179D01*
Y18900D02*
X390300Y19700D01*
X389900Y20500D01*
X390700Y20100D01*
X391500Y20500D01*
X391100Y19700D01*
X391500Y18900D01*
X390700Y19300D01*
X389900Y18900D01*
X389100Y3100D02*
X389500Y3900D01*
X389100Y4700D01*
X389900Y4300D01*
X390700Y4700D01*
X390300Y3900D01*
X390700Y3100D01*
X389900Y3500D01*
X389100Y3100D01*
X372300D02*
X372700Y3900D01*
X372300Y4700D01*
X373100Y4300D01*
X373900Y4700D01*
X373500Y3900D01*
X373900Y3100D01*
X373100Y3500D01*
X372300Y3100D01*
X355200D02*
X355600Y3900D01*
X355200Y4700D01*
X356000Y4300D01*
X356800Y4700D01*
X356400Y3900D01*
X356800Y3100D01*
X356000Y3500D01*
X355200Y3100D01*
X336853D02*
X337253Y3900D01*
X336853Y4700D01*
X337653Y4300D01*
X338453Y4700D01*
X338053Y3900D01*
X338453Y3100D01*
X337653Y3500D01*
X336853Y3100D01*
X338800Y51159D02*
X339200Y51959D01*
X338800Y52759D01*
X339600Y52359D01*
X340400Y52759D01*
X340000Y51959D01*
X340400Y51159D01*
X339600Y51559D01*
X338800Y51159D01*
X325300Y50717D02*
X325700Y51517D01*
X325300Y52317D01*
X326100Y51917D01*
X326900Y52317D01*
X326500Y51517D01*
X326900Y50717D01*
X326100Y51117D01*
X325300Y50717D01*
X300600Y57600D02*
X301000Y58400D01*
X300600Y59200D01*
X301400Y58800D01*
X302200Y59200D01*
X301800Y58400D01*
X302200Y57600D01*
X301400Y58000D01*
X300600Y57600D01*
X300300Y43766D02*
X300700Y44567D01*
X300300Y45366D01*
X301100Y44967D01*
X301900Y45366D01*
X301500Y44567D01*
X301900Y43766D01*
X301100Y44166D01*
X300300Y43766D01*
X236200Y31503D02*
X236600Y32303D01*
X236200Y33103D01*
X237000Y32703D01*
X237800Y33103D01*
X237400Y32303D01*
X237800Y31503D01*
X237000Y31903D01*
X236200Y31503D01*
X257200Y41119D02*
X257600Y41919D01*
X257200Y42719D01*
X258000Y42319D01*
X258800Y42719D01*
X258400Y41919D01*
X258800Y41119D01*
X258000Y41519D01*
X257200Y41119D01*
X219200Y53253D02*
X219600Y54053D01*
X219200Y54853D01*
X220000Y54453D01*
X220800Y54853D01*
X220400Y54053D01*
X220800Y53253D01*
X220000Y53653D01*
X219200Y53253D01*
X173600Y51000D02*
X174000Y51800D01*
X173600Y52600D01*
X174400Y52200D01*
X175200Y52600D01*
X174800Y51800D01*
X175200Y51000D01*
X174400Y51400D01*
X173600Y51000D01*
X51000Y78877D02*
X51400Y79677D01*
X51000Y80477D01*
X51800Y80077D01*
X52600Y80477D01*
X52200Y79677D01*
X52600Y78877D01*
X51800Y79277D01*
X51000Y78877D01*
X8200Y117900D02*
X8600Y118700D01*
X8200Y119500D01*
X9000Y119100D01*
X9800Y119500D01*
X9400Y118700D01*
X9800Y117900D01*
X9000Y118300D01*
X8200Y117900D01*
X48500Y122600D02*
X48900Y123400D01*
X48500Y124200D01*
X49300Y123800D01*
X50100Y124200D01*
X49700Y123400D01*
X50100Y122600D01*
X49300Y123000D01*
X48500Y122600D01*
X28100Y112300D02*
X28500Y113100D01*
X28100Y113900D01*
X28900Y113500D01*
X29700Y113900D01*
X29300Y113100D01*
X29700Y112300D01*
X28900Y112700D01*
X28100Y112300D01*
X53300Y155600D02*
X53700Y156400D01*
X53300Y157200D01*
X54100Y156800D01*
X54900Y157200D01*
X54500Y156400D01*
X54900Y155600D01*
X54100Y156000D01*
X53300Y155600D01*
X52200Y144571D02*
X52600Y145371D01*
X52200Y146171D01*
X53000Y145771D01*
X53800Y146171D01*
X53400Y145371D01*
X53800Y144571D01*
X53000Y144971D01*
X52200Y144571D01*
X53000Y232300D02*
X53400Y233100D01*
X53000Y233900D01*
X53800Y233500D01*
X54600Y233900D01*
X54200Y233100D01*
X54600Y232300D01*
X53800Y232700D01*
X53000Y232300D01*
X229294Y2300D02*
X229694Y3100D01*
X229294Y3900D01*
X230094Y3500D01*
X230894Y3900D01*
X230494Y3100D01*
X230894Y2300D01*
X230094Y2700D01*
X229294Y2300D01*
X217924D02*
X218324Y3100D01*
X217924Y3900D01*
X218724Y3500D01*
X219524Y3900D01*
X219124Y3100D01*
X219524Y2300D01*
X218724Y2700D01*
X217924Y2300D01*
X206348D02*
X206748Y3100D01*
X206348Y3900D01*
X207148Y3500D01*
X207948Y3900D01*
X207548Y3100D01*
X207948Y2300D01*
X207148Y2700D01*
X206348Y2300D01*
X195089D02*
X195489Y3100D01*
X195089Y3900D01*
X195889Y3500D01*
X196689Y3900D01*
X196289Y3100D01*
X196689Y2300D01*
X195889Y2700D01*
X195089Y2300D01*
X181824D02*
X182224Y3100D01*
X181824Y3900D01*
X182624Y3500D01*
X183424Y3900D01*
X183024Y3100D01*
X183424Y2300D01*
X182624Y2700D01*
X181824Y2300D01*
X169224D02*
X169624Y3100D01*
X169224Y3900D01*
X170024Y3500D01*
X170824Y3900D01*
X170424Y3100D01*
X170824Y2300D01*
X170024Y2700D01*
X169224Y2300D01*
X157624D02*
X158024Y3100D01*
X157624Y3900D01*
X158424Y3500D01*
X159224Y3900D01*
X158824Y3100D01*
X159224Y2300D01*
X158424Y2700D01*
X157624Y2300D01*
X146224D02*
X146624Y3100D01*
X146224Y3900D01*
X147024Y3500D01*
X147824Y3900D01*
X147424Y3100D01*
X147824Y2300D01*
X147024Y2700D01*
X146224Y2300D01*
X134524D02*
X134924Y3100D01*
X134524Y3900D01*
X135324Y3500D01*
X136124Y3900D01*
X135724Y3100D01*
X136124Y2300D01*
X135324Y2700D01*
X134524Y2300D01*
X123024D02*
X123424Y3100D01*
X123024Y3900D01*
X123824Y3500D01*
X124624Y3900D01*
X124224Y3100D01*
X124624Y2300D01*
X123824Y2700D01*
X123024Y2300D01*
X111824D02*
X112224Y3100D01*
X111824Y3900D01*
X112624Y3500D01*
X113424Y3900D01*
X113024Y3100D01*
X113424Y2300D01*
X112624Y2700D01*
X111824Y2300D01*
X276500Y38100D02*
X276900Y38900D01*
X276500Y39700D01*
X277300Y39300D01*
X278100Y39700D01*
X277700Y38900D01*
X278100Y38100D01*
X277300Y38500D01*
X276500Y38100D01*
X269800Y31705D02*
X270200Y32505D01*
X269800Y33305D01*
X270600Y32905D01*
X271400Y33305D01*
X271000Y32505D01*
X271400Y31705D01*
X270600Y32105D01*
X269800Y31705D01*
X262800Y24905D02*
X263200Y25705D01*
X262800Y26505D01*
X263600Y26105D01*
X264400Y26505D01*
X264000Y25705D01*
X264400Y24905D01*
X263600Y25305D01*
X262800Y24905D01*
X255900Y18600D02*
X256300Y19400D01*
X255900Y20200D01*
X256700Y19800D01*
X257500Y20200D01*
X257100Y19400D01*
X257500Y18600D01*
X256700Y19000D01*
X255900Y18600D01*
X330500Y184100D02*
X330900Y184900D01*
X330500Y185700D01*
X331300Y185300D01*
X332100Y185700D01*
X331700Y184900D01*
X332100Y184100D01*
X331300Y184500D01*
X330500Y184100D01*
X312000Y183900D02*
X312400Y184700D01*
X312000Y185500D01*
X312800Y185100D01*
X313600Y185500D01*
X313200Y184700D01*
X313600Y183900D01*
X312800Y184300D01*
X312000Y183900D01*
X330500Y194200D02*
X330900Y195000D01*
X330500Y195800D01*
X331300Y195400D01*
X332100Y195800D01*
X331700Y195000D01*
X332100Y194200D01*
X331300Y194600D01*
X330500Y194200D01*
X312000D02*
X312400Y195000D01*
X312000Y195800D01*
X312800Y195400D01*
X313600Y195800D01*
X313200Y195000D01*
X313600Y194200D01*
X312800Y194600D01*
X312000Y194200D01*
X254700Y259841D02*
X255100Y260641D01*
X254700Y261441D01*
X255500Y261041D01*
X256300Y261441D01*
X255900Y260641D01*
X256300Y259841D01*
X255500Y260241D01*
X254700Y259841D01*
X247918Y252500D02*
X248318Y253300D01*
X247918Y254100D01*
X248718Y253700D01*
X249518Y254100D01*
X249118Y253300D01*
X249518Y252500D01*
X248718Y252900D01*
X247918Y252500D01*
X264800Y206196D02*
X265200Y206996D01*
X264800Y207796D01*
X265600Y207396D01*
X266400Y207796D01*
X266000Y206996D01*
X266400Y206196D01*
X265600Y206596D01*
X264800Y206196D01*
X273900Y223800D02*
X274300Y224600D01*
X273900Y225400D01*
X274700Y225000D01*
X275500Y225400D01*
X275100Y224600D01*
X275500Y223800D01*
X274700Y224200D01*
X273900Y223800D01*
X274000Y234607D02*
X274400Y235407D01*
X274000Y236207D01*
X274800Y235807D01*
X275600Y236207D01*
X275200Y235407D01*
X275600Y234607D01*
X274800Y235007D01*
X274000Y234607D01*
X273900Y244200D02*
X274300Y245000D01*
X273900Y245800D01*
X274700Y245400D01*
X275500Y245800D01*
X275100Y245000D01*
X275500Y244200D01*
X274700Y244600D01*
X273900Y244200D01*
Y254390D02*
X274300Y255190D01*
X273900Y255990D01*
X274700Y255590D01*
X275500Y255990D01*
X275100Y255190D01*
X275500Y254390D01*
X274700Y254790D01*
X273900Y254390D01*
X248664Y230200D02*
X249064Y231000D01*
X248664Y231800D01*
X249464Y231400D01*
X250264Y231800D01*
X249864Y231000D01*
X250264Y230200D01*
X249464Y230600D01*
X248664Y230200D01*
X261500Y239342D02*
X261900Y240142D01*
X261500Y240942D01*
X262300Y240542D01*
X263100Y240942D01*
X262700Y240142D01*
X263100Y239342D01*
X262300Y239742D01*
X261500Y239342D01*
X304900Y239124D02*
X305300Y239924D01*
X304900Y240724D01*
X305700Y240324D01*
X306500Y240724D01*
X306100Y239924D01*
X306500Y239124D01*
X305700Y239524D01*
X304900Y239124D01*
Y245400D02*
X305300Y246200D01*
X304900Y247000D01*
X305700Y246600D01*
X306500Y247000D01*
X306100Y246200D01*
X306500Y245400D01*
X305700Y245800D01*
X304900Y245400D01*
Y251900D02*
X305300Y252700D01*
X304900Y253500D01*
X305700Y253100D01*
X306500Y253500D01*
X306100Y252700D01*
X306500Y251900D01*
X305700Y252300D01*
X304900Y251900D01*
X271724Y262600D02*
X272124Y263400D01*
X271724Y264200D01*
X272524Y263800D01*
X273324Y264200D01*
X272924Y263400D01*
X273324Y262600D01*
X272524Y263000D01*
X271724Y262600D01*
X237700Y264315D02*
X238100Y265115D01*
X237700Y265915D01*
X238500Y265515D01*
X239300Y265915D01*
X238900Y265115D01*
X239300Y264315D01*
X238500Y264715D01*
X237700Y264315D01*
X239400Y270700D02*
X239800Y271500D01*
X239400Y272300D01*
X240200Y271900D01*
X241000Y272300D01*
X240600Y271500D01*
X241000Y270700D01*
X240200Y271100D01*
X239400Y270700D01*
X187018Y283300D02*
X187418Y284100D01*
X187018Y284900D01*
X187818Y284500D01*
X188618Y284900D01*
X188218Y284100D01*
X188618Y283300D01*
X187818Y283700D01*
X187018Y283300D01*
X96100Y250114D02*
X96500Y250914D01*
X96100Y251714D01*
X96900Y251314D01*
X97700Y251714D01*
X97300Y250914D01*
X97700Y250114D01*
X96900Y250514D01*
X96100Y250114D01*
X106100D02*
X106500Y250914D01*
X106100Y251714D01*
X106900Y251314D01*
X107700Y251714D01*
X107300Y250914D01*
X107700Y250114D01*
X106900Y250514D01*
X106100Y250114D01*
X115500Y250065D02*
X115900Y250865D01*
X115500Y251665D01*
X116300Y251265D01*
X117100Y251665D01*
X116700Y250865D01*
X117100Y250065D01*
X116300Y250465D01*
X115500Y250065D01*
X126100D02*
X126500Y250865D01*
X126100Y251665D01*
X126900Y251265D01*
X127700Y251665D01*
X127300Y250865D01*
X127700Y250065D01*
X126900Y250465D01*
X126100Y250065D01*
X136300Y250100D02*
X136700Y250900D01*
X136300Y251700D01*
X137100Y251300D01*
X137900Y251700D01*
X137500Y250900D01*
X137900Y250100D01*
X137100Y250500D01*
X136300Y250100D01*
X142300Y249200D02*
X142700Y250000D01*
X142300Y250800D01*
X143100Y250400D01*
X143900Y250800D01*
X143500Y250000D01*
X143900Y249200D01*
X143100Y249600D01*
X142300Y249200D01*
X68500Y290400D02*
X68900Y291200D01*
X68500Y292000D01*
X69300Y291600D01*
X70100Y292000D01*
X69700Y291200D01*
X70100Y290400D01*
X69300Y290800D01*
X68500Y290400D01*
X81600D02*
X82000Y291200D01*
X81600Y292000D01*
X82400Y291600D01*
X83200Y292000D01*
X82800Y291200D01*
X83200Y290400D01*
X82400Y290800D01*
X81600Y290400D01*
X93500D02*
X93900Y291200D01*
X93500Y292000D01*
X94300Y291600D01*
X95100Y292000D01*
X94700Y291200D01*
X95100Y290400D01*
X94300Y290800D01*
X93500Y290400D01*
X105859Y271100D02*
X106259Y271900D01*
X105859Y272700D01*
X106659Y272300D01*
X107459Y272700D01*
X107059Y271900D01*
X107459Y271100D01*
X106659Y271500D01*
X105859Y271100D01*
X93500Y258800D02*
X93900Y259600D01*
X93500Y260400D01*
X94300Y260000D01*
X95100Y260400D01*
X94700Y259600D01*
X95100Y258800D01*
X94300Y259200D01*
X93500Y258800D01*
X105800Y258900D02*
X106200Y259700D01*
X105800Y260500D01*
X106600Y260100D01*
X107400Y260500D01*
X107000Y259700D01*
X107400Y258900D01*
X106600Y259300D01*
X105800Y258900D01*
X116200D02*
X116600Y259700D01*
X116200Y260500D01*
X117000Y260100D01*
X117800Y260500D01*
X117400Y259700D01*
X117800Y258900D01*
X117000Y259300D01*
X116200Y258900D01*
X125365Y258800D02*
X125765Y259600D01*
X125365Y260400D01*
X126165Y260000D01*
X126965Y260400D01*
X126565Y259600D01*
X126965Y258800D01*
X126165Y259200D01*
X125365Y258800D01*
X139500Y261000D02*
X139900Y261800D01*
X139500Y262600D01*
X140300Y262200D01*
X141100Y262600D01*
X140700Y261800D01*
X141100Y261000D01*
X140300Y261400D01*
X139500Y261000D01*
X120900Y269400D02*
X121300Y270200D01*
X120900Y271000D01*
X121700Y270600D01*
X122500Y271000D01*
X122100Y270200D01*
X122500Y269400D01*
X121700Y269800D01*
X120900Y269400D01*
X117300Y273200D02*
X117700Y274000D01*
X117300Y274800D01*
X118100Y274400D01*
X118900Y274800D01*
X118500Y274000D01*
X118900Y273200D01*
X118100Y273600D01*
X117300Y273200D01*
X133800Y281000D02*
X134200Y281800D01*
X133800Y282600D01*
X134600Y282200D01*
X135400Y282600D01*
X135000Y281800D01*
X135400Y281000D01*
X134600Y281400D01*
X133800Y281000D01*
X252400Y272300D02*
X252800Y273100D01*
X252400Y273900D01*
X253200Y273500D01*
X254000Y273900D01*
X253600Y273100D01*
X254000Y272300D01*
X253200Y272700D01*
X252400Y272300D01*
X213600Y280900D02*
X214000Y281700D01*
X213600Y282500D01*
X214400Y282100D01*
X215200Y282500D01*
X214800Y281700D01*
X215200Y280900D01*
X214400Y281300D01*
X213600Y280900D01*
X200200Y280700D02*
X200600Y281500D01*
X200200Y282300D01*
X201000Y281900D01*
X201800Y282300D01*
X201400Y281500D01*
X201800Y280700D01*
X201000Y281100D01*
X200200Y280700D01*
X207300Y263800D02*
X207700Y264600D01*
X207300Y265400D01*
X208100Y265000D01*
X208900Y265400D01*
X208500Y264600D01*
X208900Y263800D01*
X208100Y264200D01*
X207300Y263800D01*
X198800Y266600D02*
X199200Y267400D01*
X198800Y268200D01*
X199600Y267800D01*
X200400Y268200D01*
X200000Y267400D01*
X200400Y266600D01*
X199600Y267000D01*
X198800Y266600D01*
X198700Y272473D02*
X199100Y273273D01*
X198700Y274073D01*
X199500Y273673D01*
X200300Y274073D01*
X199900Y273273D01*
X200300Y272473D01*
X199500Y272873D01*
X198700Y272473D01*
X21425Y161170D02*
X21825Y161970D01*
X21425Y162770D01*
X22225Y162370D01*
X23025Y162770D01*
X22625Y161970D01*
X23025Y161170D01*
X22225Y161570D01*
X21425Y161170D01*
Y180302D02*
X21825Y181102D01*
X21425Y181902D01*
X22225Y181502D01*
X23025Y181902D01*
X22625Y181102D01*
X23025Y180302D01*
X22225Y180702D01*
X21425Y180302D01*
Y192113D02*
X21825Y192913D01*
X21425Y193713D01*
X22225Y193313D01*
X23025Y193713D01*
X22625Y192913D01*
X23025Y192113D01*
X22225Y192513D01*
X21425Y192113D01*
X31824Y180302D02*
X32224Y181102D01*
X31824Y181902D01*
X32624Y181502D01*
X33424Y181902D01*
X33024Y181102D01*
X33424Y180302D01*
X32624Y180702D01*
X31824Y180302D01*
Y192113D02*
X32224Y192913D01*
X31824Y193713D01*
X32624Y193313D01*
X33424Y193713D01*
X33024Y192913D01*
X33424Y192113D01*
X32624Y192513D01*
X31824Y192113D01*
X75532Y162900D02*
X75932Y163700D01*
X75532Y164500D01*
X76332Y164100D01*
X77132Y164500D01*
X76732Y163700D01*
X77132Y162900D01*
X76332Y163300D01*
X75532Y162900D01*
X384200Y279200D02*
X384600Y280000D01*
X384200Y280800D01*
X385000Y280400D01*
X385800Y280800D01*
X385400Y280000D01*
X385800Y279200D01*
X385000Y279600D01*
X384200Y279200D01*
Y139200D02*
X384600Y140000D01*
X384200Y140800D01*
X385000Y140400D01*
X385800Y140800D01*
X385400Y140000D01*
X385800Y139200D01*
X385000Y139600D01*
X384200Y139200D01*
Y111200D02*
X384600Y112000D01*
X384200Y112800D01*
X385000Y112400D01*
X385800Y112800D01*
X385400Y112000D01*
X385800Y111200D01*
X385000Y111600D01*
X384200Y111200D01*
X370200Y139200D02*
X370600Y140000D01*
X370200Y140800D01*
X371000Y140400D01*
X371800Y140800D01*
X371400Y140000D01*
X371800Y139200D01*
X371000Y139600D01*
X370200Y139200D01*
X363200Y125200D02*
X363600Y126000D01*
X363200Y126800D01*
X364000Y126400D01*
X364800Y126800D01*
X364400Y126000D01*
X364800Y125200D01*
X364000Y125600D01*
X363200Y125200D01*
X370200Y111200D02*
X370600Y112000D01*
X370200Y112800D01*
X371000Y112400D01*
X371800Y112800D01*
X371400Y112000D01*
X371800Y111200D01*
X371000Y111600D01*
X370200Y111200D01*
X363200Y97200D02*
X363600Y98000D01*
X363200Y98800D01*
X364000Y98400D01*
X364800Y98800D01*
X364400Y98000D01*
X364800Y97200D01*
X364000Y97600D01*
X363200Y97200D01*
X356200Y279200D02*
X356600Y280000D01*
X356200Y280800D01*
X357000Y280400D01*
X357800Y280800D01*
X357400Y280000D01*
X357800Y279200D01*
X357000Y279600D01*
X356200Y279200D01*
Y223200D02*
X356600Y224000D01*
X356200Y224800D01*
X357000Y224400D01*
X357800Y224800D01*
X357400Y224000D01*
X357800Y223200D01*
X357000Y223600D01*
X356200Y223200D01*
X349200Y181200D02*
X349600Y182000D01*
X349200Y182800D01*
X350000Y182400D01*
X350800Y182800D01*
X350400Y182000D01*
X350800Y181200D01*
X350000Y181600D01*
X349200Y181200D01*
X356200Y139200D02*
X356600Y140000D01*
X356200Y140800D01*
X357000Y140400D01*
X357800Y140800D01*
X357400Y140000D01*
X357800Y139200D01*
X357000Y139600D01*
X356200Y139200D01*
Y111200D02*
X356600Y112000D01*
X356200Y112800D01*
X357000Y112400D01*
X357800Y112800D01*
X357400Y112000D01*
X357800Y111200D01*
X357000Y111600D01*
X356200Y111200D01*
X342200Y279200D02*
X342600Y280000D01*
X342200Y280800D01*
X343000Y280400D01*
X343800Y280800D01*
X343400Y280000D01*
X343800Y279200D01*
X343000Y279600D01*
X342200Y279200D01*
Y251200D02*
X342600Y252000D01*
X342200Y252800D01*
X343000Y252400D01*
X343800Y252800D01*
X343400Y252000D01*
X343800Y251200D01*
X343000Y251600D01*
X342200Y251200D01*
X335200Y237200D02*
X335600Y238000D01*
X335200Y238800D01*
X336000Y238400D01*
X336800Y238800D01*
X336400Y238000D01*
X336800Y237200D01*
X336000Y237600D01*
X335200Y237200D01*
X342200Y223200D02*
X342600Y224000D01*
X342200Y224800D01*
X343000Y224400D01*
X343800Y224800D01*
X343400Y224000D01*
X343800Y223200D01*
X343000Y223600D01*
X342200Y223200D01*
Y195200D02*
X342600Y196000D01*
X342200Y196800D01*
X343000Y196400D01*
X343800Y196800D01*
X343400Y196000D01*
X343800Y195200D01*
X343000Y195600D01*
X342200Y195200D01*
X335200Y125200D02*
X335600Y126000D01*
X335200Y126800D01*
X336000Y126400D01*
X336800Y126800D01*
X336400Y126000D01*
X336800Y125200D01*
X336000Y125600D01*
X335200Y125200D01*
Y41200D02*
X335600Y42000D01*
X335200Y42800D01*
X336000Y42400D01*
X336800Y42800D01*
X336400Y42000D01*
X336800Y41200D01*
X336000Y41600D01*
X335200Y41200D01*
X342200Y27200D02*
X342600Y28000D01*
X342200Y28800D01*
X343000Y28400D01*
X343800Y28800D01*
X343400Y28000D01*
X343800Y27200D01*
X343000Y27600D01*
X342200Y27200D01*
X335200Y13200D02*
X335600Y14000D01*
X335200Y14800D01*
X336000Y14400D01*
X336800Y14800D01*
X336400Y14000D01*
X336800Y13200D01*
X336000Y13600D01*
X335200Y13200D01*
X328200Y279200D02*
X328600Y280000D01*
X328200Y280800D01*
X329000Y280400D01*
X329800Y280800D01*
X329400Y280000D01*
X329800Y279200D01*
X329000Y279600D01*
X328200Y279200D01*
Y251200D02*
X328600Y252000D01*
X328200Y252800D01*
X329000Y252400D01*
X329800Y252800D01*
X329400Y252000D01*
X329800Y251200D01*
X329000Y251600D01*
X328200Y251200D01*
Y223200D02*
X328600Y224000D01*
X328200Y224800D01*
X329000Y224400D01*
X329800Y224800D01*
X329400Y224000D01*
X329800Y223200D01*
X329000Y223600D01*
X328200Y223200D01*
X321200Y125200D02*
X321600Y126000D01*
X321200Y126800D01*
X322000Y126400D01*
X322800Y126800D01*
X322400Y126000D01*
X322800Y125200D01*
X322000Y125600D01*
X321200Y125200D01*
Y97200D02*
X321600Y98000D01*
X321200Y98800D01*
X322000Y98400D01*
X322800Y98800D01*
X322400Y98000D01*
X322800Y97200D01*
X322000Y97600D01*
X321200Y97200D01*
X314200Y279200D02*
X314600Y280000D01*
X314200Y280800D01*
X315000Y280400D01*
X315800Y280800D01*
X315400Y280000D01*
X315800Y279200D01*
X315000Y279600D01*
X314200Y279200D01*
Y251200D02*
X314600Y252000D01*
X314200Y252800D01*
X315000Y252400D01*
X315800Y252800D01*
X315400Y252000D01*
X315800Y251200D01*
X315000Y251600D01*
X314200Y251200D01*
Y223200D02*
X314600Y224000D01*
X314200Y224800D01*
X315000Y224400D01*
X315800Y224800D01*
X315400Y224000D01*
X315800Y223200D01*
X315000Y223600D01*
X314200Y223200D01*
Y139200D02*
X314600Y140000D01*
X314200Y140800D01*
X315000Y140400D01*
X315800Y140800D01*
X315400Y140000D01*
X315800Y139200D01*
X315000Y139600D01*
X314200Y139200D01*
Y83200D02*
X314600Y84000D01*
X314200Y84800D01*
X315000Y84400D01*
X315800Y84800D01*
X315400Y84000D01*
X315800Y83200D01*
X315000Y83600D01*
X314200Y83200D01*
Y55200D02*
X314600Y56000D01*
X314200Y56800D01*
X315000Y56400D01*
X315800Y56800D01*
X315400Y56000D01*
X315800Y55200D01*
X315000Y55600D01*
X314200Y55200D01*
X300200Y279200D02*
X300600Y280000D01*
X300200Y280800D01*
X301000Y280400D01*
X301800Y280800D01*
X301400Y280000D01*
X301800Y279200D01*
X301000Y279600D01*
X300200Y279200D01*
Y195200D02*
X300600Y196000D01*
X300200Y196800D01*
X301000Y196400D01*
X301800Y196800D01*
X301400Y196000D01*
X301800Y195200D01*
X301000Y195600D01*
X300200Y195200D01*
X293200Y181200D02*
X293600Y182000D01*
X293200Y182800D01*
X294000Y182400D01*
X294800Y182800D01*
X294400Y182000D01*
X294800Y181200D01*
X294000Y181600D01*
X293200Y181200D01*
Y153200D02*
X293600Y154000D01*
X293200Y154800D01*
X294000Y154400D01*
X294800Y154800D01*
X294400Y154000D01*
X294800Y153200D01*
X294000Y153600D01*
X293200Y153200D01*
X286200Y279200D02*
X286600Y280000D01*
X286200Y280800D01*
X287000Y280400D01*
X287800Y280800D01*
X287400Y280000D01*
X287800Y279200D01*
X287000Y279600D01*
X286200Y279200D01*
Y195200D02*
X286600Y196000D01*
X286200Y196800D01*
X287000Y196400D01*
X287800Y196800D01*
X287400Y196000D01*
X287800Y195200D01*
X287000Y195600D01*
X286200Y195200D01*
X279200Y125200D02*
X279600Y126000D01*
X279200Y126800D01*
X280000Y126400D01*
X280800Y126800D01*
X280400Y126000D01*
X280800Y125200D01*
X280000Y125600D01*
X279200Y125200D01*
Y97200D02*
X279600Y98000D01*
X279200Y98800D01*
X280000Y98400D01*
X280800Y98800D01*
X280400Y98000D01*
X280800Y97200D01*
X280000Y97600D01*
X279200Y97200D01*
Y69200D02*
X279600Y70000D01*
X279200Y70800D01*
X280000Y70400D01*
X280800Y70800D01*
X280400Y70000D01*
X280800Y69200D01*
X280000Y69600D01*
X279200Y69200D01*
Y13200D02*
X279600Y14000D01*
X279200Y14800D01*
X280000Y14400D01*
X280800Y14800D01*
X280400Y14000D01*
X280800Y13200D01*
X280000Y13600D01*
X279200Y13200D01*
X272200Y195200D02*
X272600Y196000D01*
X272200Y196800D01*
X273000Y196400D01*
X273800Y196800D01*
X273400Y196000D01*
X273800Y195200D01*
X273000Y195600D01*
X272200Y195200D01*
Y167200D02*
X272600Y168000D01*
X272200Y168800D01*
X273000Y168400D01*
X273800Y168800D01*
X273400Y168000D01*
X273800Y167200D01*
X273000Y167600D01*
X272200Y167200D01*
X265200Y153200D02*
X265600Y154000D01*
X265200Y154800D01*
X266000Y154400D01*
X266800Y154800D01*
X266400Y154000D01*
X266800Y153200D01*
X266000Y153600D01*
X265200Y153200D01*
X272200Y139200D02*
X272600Y140000D01*
X272200Y140800D01*
X273000Y140400D01*
X273800Y140800D01*
X273400Y140000D01*
X273800Y139200D01*
X273000Y139600D01*
X272200Y139200D01*
X265200Y125200D02*
X265600Y126000D01*
X265200Y126800D01*
X266000Y126400D01*
X266800Y126800D01*
X266400Y126000D01*
X266800Y125200D01*
X266000Y125600D01*
X265200Y125200D01*
Y97200D02*
X265600Y98000D01*
X265200Y98800D01*
X266000Y98400D01*
X266800Y98800D01*
X266400Y98000D01*
X266800Y97200D01*
X266000Y97600D01*
X265200Y97200D01*
X272200Y83200D02*
X272600Y84000D01*
X272200Y84800D01*
X273000Y84400D01*
X273800Y84800D01*
X273400Y84000D01*
X273800Y83200D01*
X273000Y83600D01*
X272200Y83200D01*
X265200Y69200D02*
X265600Y70000D01*
X265200Y70800D01*
X266000Y70400D01*
X266800Y70800D01*
X266400Y70000D01*
X266800Y69200D01*
X266000Y69600D01*
X265200Y69200D01*
X272200Y55200D02*
X272600Y56000D01*
X272200Y56800D01*
X273000Y56400D01*
X273800Y56800D01*
X273400Y56000D01*
X273800Y55200D01*
X273000Y55600D01*
X272200Y55200D01*
X265200Y13200D02*
X265600Y14000D01*
X265200Y14800D01*
X266000Y14400D01*
X266800Y14800D01*
X266400Y14000D01*
X266800Y13200D01*
X266000Y13600D01*
X265200Y13200D01*
X251200Y181200D02*
X251600Y182000D01*
X251200Y182800D01*
X252000Y182400D01*
X252800Y182800D01*
X252400Y182000D01*
X252800Y181200D01*
X252000Y181600D01*
X251200Y181200D01*
X258200Y167200D02*
X258600Y168000D01*
X258200Y168800D01*
X259000Y168400D01*
X259800Y168800D01*
X259400Y168000D01*
X259800Y167200D01*
X259000Y167600D01*
X258200Y167200D01*
X251200Y153200D02*
X251600Y154000D01*
X251200Y154800D01*
X252000Y154400D01*
X252800Y154800D01*
X252400Y154000D01*
X252800Y153200D01*
X252000Y153600D01*
X251200Y153200D01*
X258200Y139200D02*
X258600Y140000D01*
X258200Y140800D01*
X259000Y140400D01*
X259800Y140800D01*
X259400Y140000D01*
X259800Y139200D01*
X259000Y139600D01*
X258200Y139200D01*
X251200Y125200D02*
X251600Y126000D01*
X251200Y126800D01*
X252000Y126400D01*
X252800Y126800D01*
X252400Y126000D01*
X252800Y125200D01*
X252000Y125600D01*
X251200Y125200D01*
X258200Y83200D02*
X258600Y84000D01*
X258200Y84800D01*
X259000Y84400D01*
X259800Y84800D01*
X259400Y84000D01*
X259800Y83200D01*
X259000Y83600D01*
X258200Y83200D01*
Y55200D02*
X258600Y56000D01*
X258200Y56800D01*
X259000Y56400D01*
X259800Y56800D01*
X259400Y56000D01*
X259800Y55200D01*
X259000Y55600D01*
X258200Y55200D01*
X237200Y237200D02*
X237600Y238000D01*
X237200Y238800D01*
X238000Y238400D01*
X238800Y238800D01*
X238400Y238000D01*
X238800Y237200D01*
X238000Y237600D01*
X237200Y237200D01*
X244200Y195200D02*
X244600Y196000D01*
X244200Y196800D01*
X245000Y196400D01*
X245800Y196800D01*
X245400Y196000D01*
X245800Y195200D01*
X245000Y195600D01*
X244200Y195200D01*
X237200Y181200D02*
X237600Y182000D01*
X237200Y182800D01*
X238000Y182400D01*
X238800Y182800D01*
X238400Y182000D01*
X238800Y181200D01*
X238000Y181600D01*
X237200Y181200D01*
X244200Y167200D02*
X244600Y168000D01*
X244200Y168800D01*
X245000Y168400D01*
X245800Y168800D01*
X245400Y168000D01*
X245800Y167200D01*
X245000Y167600D01*
X244200Y167200D01*
X237200Y153200D02*
X237600Y154000D01*
X237200Y154800D01*
X238000Y154400D01*
X238800Y154800D01*
X238400Y154000D01*
X238800Y153200D01*
X238000Y153600D01*
X237200Y153200D01*
X244200Y139200D02*
X244600Y140000D01*
X244200Y140800D01*
X245000Y140400D01*
X245800Y140800D01*
X245400Y140000D01*
X245800Y139200D01*
X245000Y139600D01*
X244200Y139200D01*
X237200Y125200D02*
X237600Y126000D01*
X237200Y126800D01*
X238000Y126400D01*
X238800Y126800D01*
X238400Y126000D01*
X238800Y125200D01*
X238000Y125600D01*
X237200Y125200D01*
X223200Y237200D02*
X223600Y238000D01*
X223200Y238800D01*
X224000Y238400D01*
X224800Y238800D01*
X224400Y238000D01*
X224800Y237200D01*
X224000Y237600D01*
X223200Y237200D01*
X230200Y223200D02*
X230600Y224000D01*
X230200Y224800D01*
X231000Y224400D01*
X231800Y224800D01*
X231400Y224000D01*
X231800Y223200D01*
X231000Y223600D01*
X230200Y223200D01*
X223200Y209200D02*
X223600Y210000D01*
X223200Y210800D01*
X224000Y210400D01*
X224800Y210800D01*
X224400Y210000D01*
X224800Y209200D01*
X224000Y209600D01*
X223200Y209200D01*
X230200Y195200D02*
X230600Y196000D01*
X230200Y196800D01*
X231000Y196400D01*
X231800Y196800D01*
X231400Y196000D01*
X231800Y195200D01*
X231000Y195600D01*
X230200Y195200D01*
X223200Y181200D02*
X223600Y182000D01*
X223200Y182800D01*
X224000Y182400D01*
X224800Y182800D01*
X224400Y182000D01*
X224800Y181200D01*
X224000Y181600D01*
X223200Y181200D01*
X230200Y167200D02*
X230600Y168000D01*
X230200Y168800D01*
X231000Y168400D01*
X231800Y168800D01*
X231400Y168000D01*
X231800Y167200D01*
X231000Y167600D01*
X230200Y167200D01*
X223200Y153200D02*
X223600Y154000D01*
X223200Y154800D01*
X224000Y154400D01*
X224800Y154800D01*
X224400Y154000D01*
X224800Y153200D01*
X224000Y153600D01*
X223200Y153200D01*
X230200Y139200D02*
X230600Y140000D01*
X230200Y140800D01*
X231000Y140400D01*
X231800Y140800D01*
X231400Y140000D01*
X231800Y139200D01*
X231000Y139600D01*
X230200Y139200D01*
X223200Y125200D02*
X223600Y126000D01*
X223200Y126800D01*
X224000Y126400D01*
X224800Y126800D01*
X224400Y126000D01*
X224800Y125200D01*
X224000Y125600D01*
X223200Y125200D01*
X209200Y237200D02*
X209600Y238000D01*
X209200Y238800D01*
X210000Y238400D01*
X210800Y238800D01*
X210400Y238000D01*
X210800Y237200D01*
X210000Y237600D01*
X209200Y237200D01*
X216200Y223200D02*
X216600Y224000D01*
X216200Y224800D01*
X217000Y224400D01*
X217800Y224800D01*
X217400Y224000D01*
X217800Y223200D01*
X217000Y223600D01*
X216200Y223200D01*
X209200Y209200D02*
X209600Y210000D01*
X209200Y210800D01*
X210000Y210400D01*
X210800Y210800D01*
X210400Y210000D01*
X210800Y209200D01*
X210000Y209600D01*
X209200Y209200D01*
X216200Y195200D02*
X216600Y196000D01*
X216200Y196800D01*
X217000Y196400D01*
X217800Y196800D01*
X217400Y196000D01*
X217800Y195200D01*
X217000Y195600D01*
X216200Y195200D01*
X209200Y181200D02*
X209600Y182000D01*
X209200Y182800D01*
X210000Y182400D01*
X210800Y182800D01*
X210400Y182000D01*
X210800Y181200D01*
X210000Y181600D01*
X209200Y181200D01*
X216200Y167200D02*
X216600Y168000D01*
X216200Y168800D01*
X217000Y168400D01*
X217800Y168800D01*
X217400Y168000D01*
X217800Y167200D01*
X217000Y167600D01*
X216200Y167200D01*
X209200Y153200D02*
X209600Y154000D01*
X209200Y154800D01*
X210000Y154400D01*
X210800Y154800D01*
X210400Y154000D01*
X210800Y153200D01*
X210000Y153600D01*
X209200Y153200D01*
X216200Y139200D02*
X216600Y140000D01*
X216200Y140800D01*
X217000Y140400D01*
X217800Y140800D01*
X217400Y140000D01*
X217800Y139200D01*
X217000Y139600D01*
X216200Y139200D01*
X209200Y125200D02*
X209600Y126000D01*
X209200Y126800D01*
X210000Y126400D01*
X210800Y126800D01*
X210400Y126000D01*
X210800Y125200D01*
X210000Y125600D01*
X209200Y125200D01*
X202200Y223200D02*
X202600Y224000D01*
X202200Y224800D01*
X203000Y224400D01*
X203800Y224800D01*
X203400Y224000D01*
X203800Y223200D01*
X203000Y223600D01*
X202200Y223200D01*
X195200Y209200D02*
X195600Y210000D01*
X195200Y210800D01*
X196000Y210400D01*
X196800Y210800D01*
X196400Y210000D01*
X196800Y209200D01*
X196000Y209600D01*
X195200Y209200D01*
X202200Y195200D02*
X202600Y196000D01*
X202200Y196800D01*
X203000Y196400D01*
X203800Y196800D01*
X203400Y196000D01*
X203800Y195200D01*
X203000Y195600D01*
X202200Y195200D01*
X195200Y181200D02*
X195600Y182000D01*
X195200Y182800D01*
X196000Y182400D01*
X196800Y182800D01*
X196400Y182000D01*
X196800Y181200D01*
X196000Y181600D01*
X195200Y181200D01*
X202200Y167200D02*
X202600Y168000D01*
X202200Y168800D01*
X203000Y168400D01*
X203800Y168800D01*
X203400Y168000D01*
X203800Y167200D01*
X203000Y167600D01*
X202200Y167200D01*
X195200Y153200D02*
X195600Y154000D01*
X195200Y154800D01*
X196000Y154400D01*
X196800Y154800D01*
X196400Y154000D01*
X196800Y153200D01*
X196000Y153600D01*
X195200Y153200D01*
X202200Y139200D02*
X202600Y140000D01*
X202200Y140800D01*
X203000Y140400D01*
X203800Y140800D01*
X203400Y140000D01*
X203800Y139200D01*
X203000Y139600D01*
X202200Y139200D01*
Y83200D02*
X202600Y84000D01*
X202200Y84800D01*
X203000Y84400D01*
X203800Y84800D01*
X203400Y84000D01*
X203800Y83200D01*
X203000Y83600D01*
X202200Y83200D01*
X181200Y209200D02*
X181600Y210000D01*
X181200Y210800D01*
X182000Y210400D01*
X182800Y210800D01*
X182400Y210000D01*
X182800Y209200D01*
X182000Y209600D01*
X181200Y209200D01*
X188200Y195200D02*
X188600Y196000D01*
X188200Y196800D01*
X189000Y196400D01*
X189800Y196800D01*
X189400Y196000D01*
X189800Y195200D01*
X189000Y195600D01*
X188200Y195200D01*
X181200Y181200D02*
X181600Y182000D01*
X181200Y182800D01*
X182000Y182400D01*
X182800Y182800D01*
X182400Y182000D01*
X182800Y181200D01*
X182000Y181600D01*
X181200Y181200D01*
X188200Y167200D02*
X188600Y168000D01*
X188200Y168800D01*
X189000Y168400D01*
X189800Y168800D01*
X189400Y168000D01*
X189800Y167200D01*
X189000Y167600D01*
X188200Y167200D01*
Y139200D02*
X188600Y140000D01*
X188200Y140800D01*
X189000Y140400D01*
X189800Y140800D01*
X189400Y140000D01*
X189800Y139200D01*
X189000Y139600D01*
X188200Y139200D01*
X181200Y97200D02*
X181600Y98000D01*
X181200Y98800D01*
X182000Y98400D01*
X182800Y98800D01*
X182400Y98000D01*
X182800Y97200D01*
X182000Y97600D01*
X181200Y97200D01*
X167200Y237200D02*
X167600Y238000D01*
X167200Y238800D01*
X168000Y238400D01*
X168800Y238800D01*
X168400Y238000D01*
X168800Y237200D01*
X168000Y237600D01*
X167200Y237200D01*
Y209200D02*
X167600Y210000D01*
X167200Y210800D01*
X168000Y210400D01*
X168800Y210800D01*
X168400Y210000D01*
X168800Y209200D01*
X168000Y209600D01*
X167200Y209200D01*
X174200Y195200D02*
X174600Y196000D01*
X174200Y196800D01*
X175000Y196400D01*
X175800Y196800D01*
X175400Y196000D01*
X175800Y195200D01*
X175000Y195600D01*
X174200Y195200D01*
X167200Y181200D02*
X167600Y182000D01*
X167200Y182800D01*
X168000Y182400D01*
X168800Y182800D01*
X168400Y182000D01*
X168800Y181200D01*
X168000Y181600D01*
X167200Y181200D01*
X174200Y167200D02*
X174600Y168000D01*
X174200Y168800D01*
X175000Y168400D01*
X175800Y168800D01*
X175400Y168000D01*
X175800Y167200D01*
X175000Y167600D01*
X174200Y167200D01*
X167200Y153200D02*
X167600Y154000D01*
X167200Y154800D01*
X168000Y154400D01*
X168800Y154800D01*
X168400Y154000D01*
X168800Y153200D01*
X168000Y153600D01*
X167200Y153200D01*
X174200Y139200D02*
X174600Y140000D01*
X174200Y140800D01*
X175000Y140400D01*
X175800Y140800D01*
X175400Y140000D01*
X175800Y139200D01*
X175000Y139600D01*
X174200Y139200D01*
Y111200D02*
X174600Y112000D01*
X174200Y112800D01*
X175000Y112400D01*
X175800Y112800D01*
X175400Y112000D01*
X175800Y111200D01*
X175000Y111600D01*
X174200Y111200D01*
Y83200D02*
X174600Y84000D01*
X174200Y84800D01*
X175000Y84400D01*
X175800Y84800D01*
X175400Y84000D01*
X175800Y83200D01*
X175000Y83600D01*
X174200Y83200D01*
X160200Y251200D02*
X160600Y252000D01*
X160200Y252800D01*
X161000Y252400D01*
X161800Y252800D01*
X161400Y252000D01*
X161800Y251200D01*
X161000Y251600D01*
X160200Y251200D01*
Y195200D02*
X160600Y196000D01*
X160200Y196800D01*
X161000Y196400D01*
X161800Y196800D01*
X161400Y196000D01*
X161800Y195200D01*
X161000Y195600D01*
X160200Y195200D01*
Y167200D02*
X160600Y168000D01*
X160200Y168800D01*
X161000Y168400D01*
X161800Y168800D01*
X161400Y168000D01*
X161800Y167200D01*
X161000Y167600D01*
X160200Y167200D01*
X153200Y153200D02*
X153600Y154000D01*
X153200Y154800D01*
X154000Y154400D01*
X154800Y154800D01*
X154400Y154000D01*
X154800Y153200D01*
X154000Y153600D01*
X153200Y153200D01*
X139200Y209200D02*
X139600Y210000D01*
X139200Y210800D01*
X140000Y210400D01*
X140800Y210800D01*
X140400Y210000D01*
X140800Y209200D01*
X140000Y209600D01*
X139200Y209200D01*
X146200Y195200D02*
X146600Y196000D01*
X146200Y196800D01*
X147000Y196400D01*
X147800Y196800D01*
X147400Y196000D01*
X147800Y195200D01*
X147000Y195600D01*
X146200Y195200D01*
Y167200D02*
X146600Y168000D01*
X146200Y168800D01*
X147000Y168400D01*
X147800Y168800D01*
X147400Y168000D01*
X147800Y167200D01*
X147000Y167600D01*
X146200Y167200D01*
X139200Y153200D02*
X139600Y154000D01*
X139200Y154800D01*
X140000Y154400D01*
X140800Y154800D01*
X140400Y154000D01*
X140800Y153200D01*
X140000Y153600D01*
X139200Y153200D01*
X146200Y111200D02*
X146600Y112000D01*
X146200Y112800D01*
X147000Y112400D01*
X147800Y112800D01*
X147400Y112000D01*
X147800Y111200D01*
X147000Y111600D01*
X146200Y111200D01*
X125200Y153200D02*
X125600Y154000D01*
X125200Y154800D01*
X126000Y154400D01*
X126800Y154800D01*
X126400Y154000D01*
X126800Y153200D01*
X126000Y153600D01*
X125200Y153200D01*
X132200Y111200D02*
X132600Y112000D01*
X132200Y112800D01*
X133000Y112400D01*
X133800Y112800D01*
X133400Y112000D01*
X133800Y111200D01*
X133000Y111600D01*
X132200Y111200D01*
X125200Y97200D02*
X125600Y98000D01*
X125200Y98800D01*
X126000Y98400D01*
X126800Y98800D01*
X126400Y98000D01*
X126800Y97200D01*
X126000Y97600D01*
X125200Y97200D01*
X132200Y83200D02*
X132600Y84000D01*
X132200Y84800D01*
X133000Y84400D01*
X133800Y84800D01*
X133400Y84000D01*
X133800Y83200D01*
X133000Y83600D01*
X132200Y83200D01*
X125200Y69200D02*
X125600Y70000D01*
X125200Y70800D01*
X126000Y70400D01*
X126800Y70800D01*
X126400Y70000D01*
X126800Y69200D01*
X126000Y69600D01*
X125200Y69200D01*
X132200Y27200D02*
X132600Y28000D01*
X132200Y28800D01*
X133000Y28400D01*
X133800Y28800D01*
X133400Y28000D01*
X133800Y27200D01*
X133000Y27600D01*
X132200Y27200D01*
X111200Y153200D02*
X111600Y154000D01*
X111200Y154800D01*
X112000Y154400D01*
X112800Y154800D01*
X112400Y154000D01*
X112800Y153200D01*
X112000Y153600D01*
X111200Y153200D01*
Y69200D02*
X111600Y70000D01*
X111200Y70800D01*
X112000Y70400D01*
X112800Y70800D01*
X112400Y70000D01*
X112800Y69200D01*
X112000Y69600D01*
X111200Y69200D01*
X118200Y27200D02*
X118600Y28000D01*
X118200Y28800D01*
X119000Y28400D01*
X119800Y28800D01*
X119400Y28000D01*
X119800Y27200D01*
X119000Y27600D01*
X118200Y27200D01*
X111200Y13200D02*
X111600Y14000D01*
X111200Y14800D01*
X112000Y14400D01*
X112800Y14800D01*
X112400Y14000D01*
X112800Y13200D01*
X112000Y13600D01*
X111200Y13200D01*
X104200Y167200D02*
X104600Y168000D01*
X104200Y168800D01*
X105000Y168400D01*
X105800Y168800D01*
X105400Y168000D01*
X105800Y167200D01*
X105000Y167600D01*
X104200Y167200D01*
X97200Y97200D02*
X97600Y98000D01*
X97200Y98800D01*
X98000Y98400D01*
X98800Y98800D01*
X98400Y98000D01*
X98800Y97200D01*
X98000Y97600D01*
X97200Y97200D01*
X104200Y55200D02*
X104600Y56000D01*
X104200Y56800D01*
X105000Y56400D01*
X105800Y56800D01*
X105400Y56000D01*
X105800Y55200D01*
X105000Y55600D01*
X104200Y55200D01*
X97200Y41200D02*
X97600Y42000D01*
X97200Y42800D01*
X98000Y42400D01*
X98800Y42800D01*
X98400Y42000D01*
X98800Y41200D01*
X98000Y41600D01*
X97200Y41200D01*
Y13200D02*
X97600Y14000D01*
X97200Y14800D01*
X98000Y14400D01*
X98800Y14800D01*
X98400Y14000D01*
X98800Y13200D01*
X98000Y13600D01*
X97200Y13200D01*
X90200Y55200D02*
X90600Y56000D01*
X90200Y56800D01*
X91000Y56400D01*
X91800Y56800D01*
X91400Y56000D01*
X91800Y55200D01*
X91000Y55600D01*
X90200Y55200D01*
X83200Y41200D02*
X83600Y42000D01*
X83200Y42800D01*
X84000Y42400D01*
X84800Y42800D01*
X84400Y42000D01*
X84800Y41200D01*
X84000Y41600D01*
X83200Y41200D01*
Y13200D02*
X83600Y14000D01*
X83200Y14800D01*
X84000Y14400D01*
X84800Y14800D01*
X84400Y14000D01*
X84800Y13200D01*
X84000Y13600D01*
X83200Y13200D01*
X76200Y251200D02*
X76600Y252000D01*
X76200Y252800D01*
X77000Y252400D01*
X77800Y252800D01*
X77400Y252000D01*
X77800Y251200D01*
X77000Y251600D01*
X76200Y251200D01*
X69200Y209200D02*
X69600Y210000D01*
X69200Y210800D01*
X70000Y210400D01*
X70800Y210800D01*
X70400Y210000D01*
X70800Y209200D01*
X70000Y209600D01*
X69200Y209200D01*
X76200Y83200D02*
X76600Y84000D01*
X76200Y84800D01*
X77000Y84400D01*
X77800Y84800D01*
X77400Y84000D01*
X77800Y83200D01*
X77000Y83600D01*
X76200Y83200D01*
Y55200D02*
X76600Y56000D01*
X76200Y56800D01*
X77000Y56400D01*
X77800Y56800D01*
X77400Y56000D01*
X77800Y55200D01*
X77000Y55600D01*
X76200Y55200D01*
X69200Y41200D02*
X69600Y42000D01*
X69200Y42800D01*
X70000Y42400D01*
X70800Y42800D01*
X70400Y42000D01*
X70800Y41200D01*
X70000Y41600D01*
X69200Y41200D01*
X76200Y27200D02*
X76600Y28000D01*
X76200Y28800D01*
X77000Y28400D01*
X77800Y28800D01*
X77400Y28000D01*
X77800Y27200D01*
X77000Y27600D01*
X76200Y27200D01*
X69200Y13200D02*
X69600Y14000D01*
X69200Y14800D01*
X70000Y14400D01*
X70800Y14800D01*
X70400Y14000D01*
X70800Y13200D01*
X70000Y13600D01*
X69200Y13200D01*
X62200Y279200D02*
X62600Y280000D01*
X62200Y280800D01*
X63000Y280400D01*
X63800Y280800D01*
X63400Y280000D01*
X63800Y279200D01*
X63000Y279600D01*
X62200Y279200D01*
X55200Y265200D02*
X55600Y266000D01*
X55200Y266800D01*
X56000Y266400D01*
X56800Y266800D01*
X56400Y266000D01*
X56800Y265200D01*
X56000Y265600D01*
X55200Y265200D01*
X62200Y251200D02*
X62600Y252000D01*
X62200Y252800D01*
X63000Y252400D01*
X63800Y252800D01*
X63400Y252000D01*
X63800Y251200D01*
X63000Y251600D01*
X62200Y251200D01*
X55200Y209200D02*
X55600Y210000D01*
X55200Y210800D01*
X56000Y210400D01*
X56800Y210800D01*
X56400Y210000D01*
X56800Y209200D01*
X56000Y209600D01*
X55200Y209200D01*
Y181200D02*
X55600Y182000D01*
X55200Y182800D01*
X56000Y182400D01*
X56800Y182800D01*
X56400Y182000D01*
X56800Y181200D01*
X56000Y181600D01*
X55200Y181200D01*
X62200Y55200D02*
X62600Y56000D01*
X62200Y56800D01*
X63000Y56400D01*
X63800Y56800D01*
X63400Y56000D01*
X63800Y55200D01*
X63000Y55600D01*
X62200Y55200D01*
X55200Y41200D02*
X55600Y42000D01*
X55200Y42800D01*
X56000Y42400D01*
X56800Y42800D01*
X56400Y42000D01*
X56800Y41200D01*
X56000Y41600D01*
X55200Y41200D01*
X62200Y27200D02*
X62600Y28000D01*
X62200Y28800D01*
X63000Y28400D01*
X63800Y28800D01*
X63400Y28000D01*
X63800Y27200D01*
X63000Y27600D01*
X62200Y27200D01*
X55200Y13200D02*
X55600Y14000D01*
X55200Y14800D01*
X56000Y14400D01*
X56800Y14800D01*
X56400Y14000D01*
X56800Y13200D01*
X56000Y13600D01*
X55200Y13200D01*
X48200Y279200D02*
X48600Y280000D01*
X48200Y280800D01*
X49000Y280400D01*
X49800Y280800D01*
X49400Y280000D01*
X49800Y279200D01*
X49000Y279600D01*
X48200Y279200D01*
X41200Y265200D02*
X41600Y266000D01*
X41200Y266800D01*
X42000Y266400D01*
X42800Y266800D01*
X42400Y266000D01*
X42800Y265200D01*
X42000Y265600D01*
X41200Y265200D01*
X48200Y251200D02*
X48600Y252000D01*
X48200Y252800D01*
X49000Y252400D01*
X49800Y252800D01*
X49400Y252000D01*
X49800Y251200D01*
X49000Y251600D01*
X48200Y251200D01*
X41200Y237200D02*
X41600Y238000D01*
X41200Y238800D01*
X42000Y238400D01*
X42800Y238800D01*
X42400Y238000D01*
X42800Y237200D01*
X42000Y237600D01*
X41200Y237200D01*
Y209200D02*
X41600Y210000D01*
X41200Y210800D01*
X42000Y210400D01*
X42800Y210800D01*
X42400Y210000D01*
X42800Y209200D01*
X42000Y209600D01*
X41200Y209200D01*
X48200Y195200D02*
X48600Y196000D01*
X48200Y196800D01*
X49000Y196400D01*
X49800Y196800D01*
X49400Y196000D01*
X49800Y195200D01*
X49000Y195600D01*
X48200Y195200D01*
X41200Y181200D02*
X41600Y182000D01*
X41200Y182800D01*
X42000Y182400D01*
X42800Y182800D01*
X42400Y182000D01*
X42800Y181200D01*
X42000Y181600D01*
X41200Y181200D01*
Y153200D02*
X41600Y154000D01*
X41200Y154800D01*
X42000Y154400D01*
X42800Y154800D01*
X42400Y154000D01*
X42800Y153200D01*
X42000Y153600D01*
X41200Y153200D01*
Y69200D02*
X41600Y70000D01*
X41200Y70800D01*
X42000Y70400D01*
X42800Y70800D01*
X42400Y70000D01*
X42800Y69200D01*
X42000Y69600D01*
X41200Y69200D01*
X34200Y279200D02*
X34600Y280000D01*
X34200Y280800D01*
X35000Y280400D01*
X35800Y280800D01*
X35400Y280000D01*
X35800Y279200D01*
X35000Y279600D01*
X34200Y279200D01*
Y251200D02*
X34600Y252000D01*
X34200Y252800D01*
X35000Y252400D01*
X35800Y252800D01*
X35400Y252000D01*
X35800Y251200D01*
X35000Y251600D01*
X34200Y251200D01*
Y55200D02*
X34600Y56000D01*
X34200Y56800D01*
X35000Y56400D01*
X35800Y56800D01*
X35400Y56000D01*
X35800Y55200D01*
X35000Y55600D01*
X34200Y55200D01*
Y27200D02*
X34600Y28000D01*
X34200Y28800D01*
X35000Y28400D01*
X35800Y28800D01*
X35400Y28000D01*
X35800Y27200D01*
X35000Y27600D01*
X34200Y27200D01*
X20200Y279200D02*
X20600Y280000D01*
X20200Y280800D01*
X21000Y280400D01*
X21800Y280800D01*
X21400Y280000D01*
X21800Y279200D01*
X21000Y279600D01*
X20200Y279200D01*
Y251200D02*
X20600Y252000D01*
X20200Y252800D01*
X21000Y252400D01*
X21800Y252800D01*
X21400Y252000D01*
X21800Y251200D01*
X21000Y251600D01*
X20200Y251200D01*
Y55200D02*
X20600Y56000D01*
X20200Y56800D01*
X21000Y56400D01*
X21800Y56800D01*
X21400Y56000D01*
X21800Y55200D01*
X21000Y55600D01*
X20200Y55200D01*
X358700Y189500D02*
Y189100D01*
X359500D01*
Y189500D01*
X359900D01*
Y190300D01*
X359500D01*
Y190700D01*
X358700D01*
Y190300D01*
X358300D01*
Y189500D01*
X358700D01*
X329879Y189081D02*
X330279D01*
X330679Y189481D01*
X331079Y189081D01*
X331479D01*
Y189481D01*
X331079Y189881D01*
X331479Y190281D01*
Y190681D01*
X331079D01*
X330679Y190281D01*
X330279Y190681D01*
X329879D01*
Y190281D01*
X330279Y189881D01*
X329879Y189481D01*
Y189081D01*
X340200Y64600D02*
X340600D01*
X341000Y65000D01*
X341400Y64600D01*
X341800D01*
Y65000D01*
X341400Y65400D01*
X341800Y65800D01*
Y66200D01*
X341400D01*
X341000Y65800D01*
X340600Y66200D01*
X340200D01*
Y65800D01*
X340600Y65400D01*
X340200Y65000D01*
Y64600D01*
Y90400D02*
X340600D01*
X341000Y90800D01*
X341400Y90400D01*
X341800D01*
Y90800D01*
X341400Y91200D01*
X341800Y91600D01*
Y92000D01*
X341400D01*
X341000Y91600D01*
X340600Y92000D01*
X340200D01*
Y91600D01*
X340600Y91200D01*
X340200Y90800D01*
Y90400D01*
X311500Y216600D02*
X311900D01*
X312300Y217000D01*
X312700Y216600D01*
X313100D01*
Y217000D01*
X312700Y217400D01*
X313100Y217800D01*
Y218200D01*
X312700D01*
X312300Y217800D01*
X311900Y218200D01*
X311500D01*
Y217800D01*
X311900Y217400D01*
X311500Y217000D01*
Y216600D01*
X291400Y232700D02*
X291800D01*
X292200Y233100D01*
X292600Y232700D01*
X293000D01*
Y233100D01*
X292600Y233500D01*
X293000Y233900D01*
Y234300D01*
X292600D01*
X292200Y233900D01*
X291800Y234300D01*
X291400D01*
Y233900D01*
X291800Y233500D01*
X291400Y233100D01*
Y232700D01*
X162700Y255919D02*
X163100D01*
X163500Y256319D01*
X163900Y255919D01*
X164300D01*
Y256319D01*
X163900Y256719D01*
X164300Y257119D01*
Y257519D01*
X163900D01*
X163500Y257119D01*
X163100Y257519D01*
X162700D01*
Y257119D01*
X163100Y256719D01*
X162700Y256319D01*
Y255919D01*
X165440Y252000D02*
X165840D01*
X166240Y252400D01*
X166640Y252000D01*
X167040D01*
Y252400D01*
X166640Y252800D01*
X167040Y253200D01*
Y253600D01*
X166640D01*
X166240Y253200D01*
X165840Y253600D01*
X165440D01*
Y253200D01*
X165840Y252800D01*
X165440Y252400D01*
Y252000D01*
X247800Y286300D02*
X248200D01*
X248600Y286700D01*
X249000Y286300D01*
X249400D01*
Y286700D01*
X249000Y287100D01*
X249400Y287500D01*
Y287900D01*
X249000D01*
X248600Y287500D01*
X248200Y287900D01*
X247800D01*
Y287500D01*
X248200Y287100D01*
X247800Y286700D01*
Y286300D01*
X62900Y109700D02*
X63300D01*
X63700Y110100D01*
X64100Y109700D01*
X64500D01*
Y110100D01*
X64100Y110500D01*
X64500Y110900D01*
Y111300D01*
X64100D01*
X63700Y110900D01*
X63300Y111300D01*
X62900D01*
Y110900D01*
X63300Y110500D01*
X62900Y110100D01*
Y109700D01*
X333300Y202500D02*
X333700D01*
X334100Y202900D01*
X334500Y202500D01*
X334900D01*
Y202900D01*
X334500Y203300D01*
X334900Y203700D01*
Y204100D01*
X334500D01*
X334100Y203700D01*
X333700Y204100D01*
X333300D01*
Y203700D01*
X333700Y203300D01*
X333300Y202900D01*
Y202500D01*
X76800Y203200D02*
X77200D01*
X77600Y203600D01*
X78000Y203200D01*
X78400D01*
Y203600D01*
X78000Y204000D01*
X78400Y204400D01*
Y204800D01*
X78000D01*
X77600Y204400D01*
X77200Y204800D01*
X76800D01*
Y204400D01*
X77200Y204000D01*
X76800Y203600D01*
Y203200D01*
X107300D02*
X107700D01*
X108100Y203600D01*
X108500Y203200D01*
X108900D01*
Y203600D01*
X108500Y204000D01*
X108900Y204400D01*
Y204800D01*
X108500D01*
X108100Y204400D01*
X107700Y204800D01*
X107300D01*
Y204400D01*
X107700Y204000D01*
X107300Y203600D01*
Y203200D01*
Y184743D02*
X107700D01*
X108100Y185143D01*
X108500Y184743D01*
X108900D01*
Y185143D01*
X108500Y185543D01*
X108900Y185943D01*
Y186343D01*
X108500D01*
X108100Y185943D01*
X107700Y186343D01*
X107300D01*
Y185943D01*
X107700Y185543D01*
X107300Y185143D01*
Y184743D01*
X52900Y99377D02*
X53300D01*
X53700Y99777D01*
X54100Y99377D01*
X54500D01*
Y99777D01*
X54100Y100177D01*
X54500Y100577D01*
Y100977D01*
X54100D01*
X53700Y100577D01*
X53300Y100977D01*
X52900D01*
Y100577D01*
X53300Y100177D01*
X52900Y99777D01*
Y99377D01*
X237400Y21200D02*
X237800D01*
X238200Y21600D01*
X238600Y21200D01*
X239000D01*
Y21600D01*
X238600Y22000D01*
X239000Y22400D01*
Y22800D01*
X238600D01*
X238200Y22400D01*
X237800Y22800D01*
X237400D01*
Y22400D01*
X237800Y22000D01*
X237400Y21600D01*
Y21200D01*
X232500Y20900D02*
X232900D01*
X233300Y21300D01*
X233700Y20900D01*
X234100D01*
Y21300D01*
X233700Y21700D01*
X234100Y22100D01*
Y22500D01*
X233700D01*
X233300Y22100D01*
X232900Y22500D01*
X232500D01*
Y22100D01*
X232900Y21700D01*
X232500Y21300D01*
Y20900D01*
X246300Y7700D02*
X246700D01*
X247100Y8100D01*
X247500Y7700D01*
X247900D01*
Y8100D01*
X247500Y8500D01*
X247900Y8900D01*
Y9300D01*
X247500D01*
X247100Y8900D01*
X246700Y9300D01*
X246300D01*
Y8900D01*
X246700Y8500D01*
X246300Y8100D01*
Y7700D01*
X217200Y29800D02*
X217600D01*
X218000Y30200D01*
X218400Y29800D01*
X218800D01*
Y30200D01*
X218400Y30600D01*
X218800Y31000D01*
Y31400D01*
X218400D01*
X218000Y31000D01*
X217600Y31400D01*
X217200D01*
Y31000D01*
X217600Y30600D01*
X217200Y30200D01*
Y29800D01*
X162100Y55300D02*
X162500D01*
X162900Y55700D01*
X163300Y55300D01*
X163700D01*
Y55700D01*
X163300Y56100D01*
X163700Y56500D01*
Y56900D01*
X163300D01*
X162900Y56500D01*
X162500Y56900D01*
X162100D01*
Y56500D01*
X162500Y56100D01*
X162100Y55700D01*
Y55300D01*
X167800Y55700D02*
X168200D01*
X168600Y56100D01*
X169000Y55700D01*
X169400D01*
Y56100D01*
X169000Y56500D01*
X169400Y56900D01*
Y57300D01*
X169000D01*
X168600Y56900D01*
X168200Y57300D01*
X167800D01*
Y56900D01*
X168200Y56500D01*
X167800Y56100D01*
Y55700D01*
X188500Y58100D02*
X188900D01*
X189300Y58500D01*
X189700Y58100D01*
X190100D01*
Y58500D01*
X189700Y58900D01*
X190100Y59300D01*
Y59700D01*
X189700D01*
X189300Y59300D01*
X188900Y59700D01*
X188500D01*
Y59300D01*
X188900Y58900D01*
X188500Y58500D01*
Y58100D01*
X244000Y55600D02*
X244400D01*
X244800Y56000D01*
X245200Y55600D01*
X245600D01*
Y56000D01*
X245200Y56400D01*
X245600Y56800D01*
Y57200D01*
X245200D01*
X244800Y56800D01*
X244400Y57200D01*
X244000D01*
Y56800D01*
X244400Y56400D01*
X244000Y56000D01*
Y55600D01*
X76800Y225800D02*
X77200D01*
X77600Y226200D01*
X78000Y225800D01*
X78400D01*
Y226200D01*
X78000Y226600D01*
X78400Y227000D01*
Y227400D01*
X78000D01*
X77600Y227000D01*
X77200Y227400D01*
X76800D01*
Y227000D01*
X77200Y226600D01*
X76800Y226200D01*
Y225800D01*
X67200Y127200D02*
X67600D01*
X68000Y127600D01*
X68400Y127200D01*
X68800D01*
Y127600D01*
X68400Y128000D01*
X68800Y128400D01*
Y128800D01*
X68400D01*
X68000Y128400D01*
X67600Y128800D01*
X67200D01*
Y128400D01*
X67600Y128000D01*
X67200Y127600D01*
Y127200D01*
X73119Y172619D02*
X73519D01*
X73919Y173019D01*
X74319Y172619D01*
X74719D01*
Y173019D01*
X74319Y173419D01*
X74719Y173819D01*
Y174219D01*
X74319D01*
X73919Y173819D01*
X73519Y174219D01*
X73119D01*
Y173819D01*
X73519Y173419D01*
X73119Y173019D01*
Y172619D01*
X251500Y43800D02*
X251900D01*
X252300Y44200D01*
X252700Y43800D01*
X253100D01*
Y44200D01*
X252700Y44600D01*
X253100Y45000D01*
Y45400D01*
X252700D01*
X252300Y45000D01*
X251900Y45400D01*
X251500D01*
Y45000D01*
X251900Y44600D01*
X251500Y44200D01*
Y43800D01*
X243400Y19200D02*
X243800D01*
X244200Y19600D01*
X244600Y19200D01*
X245000D01*
Y19600D01*
X244600Y20000D01*
X245000Y20400D01*
Y20800D01*
X244600D01*
X244200Y20400D01*
X243800Y20800D01*
X243400D01*
Y20400D01*
X243800Y20000D01*
X243400Y19600D01*
Y19200D01*
X191200Y34088D02*
X191600D01*
X192000Y34488D01*
X192400Y34088D01*
X192800D01*
Y34488D01*
X192400Y34888D01*
X192800Y35288D01*
Y35688D01*
X192400D01*
X192000Y35288D01*
X191600Y35688D01*
X191200D01*
Y35288D01*
X191600Y34888D01*
X191200Y34488D01*
Y34088D01*
X36777Y94377D02*
X37177D01*
X37577Y94777D01*
X37977Y94377D01*
X38377D01*
Y94777D01*
X37977Y95177D01*
X38377Y95577D01*
Y95977D01*
X37977D01*
X37577Y95577D01*
X37177Y95977D01*
X36777D01*
Y95577D01*
X37177Y95177D01*
X36777Y94777D01*
Y94377D01*
X206200Y32800D02*
X206600D01*
X207000Y33200D01*
X207400Y32800D01*
X207800D01*
Y33200D01*
X207400Y33600D01*
X207800Y34000D01*
Y34400D01*
X207400D01*
X207000Y34000D01*
X206600Y34400D01*
X206200D01*
Y34000D01*
X206600Y33600D01*
X206200Y33200D01*
Y32800D01*
X245700D02*
X246100D01*
X246500Y33200D01*
X246900Y32800D01*
X247300D01*
Y33200D01*
X246900Y33600D01*
X247300Y34000D01*
Y34400D01*
X246900D01*
X246500Y34000D01*
X246100Y34400D01*
X245700D01*
Y34000D01*
X246100Y33600D01*
X245700Y33200D01*
Y32800D01*
X225300Y18600D02*
X225700D01*
X226100Y19000D01*
X226500Y18600D01*
X226900D01*
Y19000D01*
X226500Y19400D01*
X226900Y19800D01*
Y20200D01*
X226500D01*
X226100Y19800D01*
X225700Y20200D01*
X225300D01*
Y19800D01*
X225700Y19400D01*
X225300Y19000D01*
Y18600D01*
X121600Y10800D02*
X122000D01*
X122400Y11200D01*
X122800Y10800D01*
X123200D01*
Y11200D01*
X122800Y11600D01*
X123200Y12000D01*
Y12400D01*
X122800D01*
X122400Y12000D01*
X122000Y12400D01*
X121600D01*
Y12000D01*
X122000Y11600D01*
X121600Y11200D01*
Y10800D01*
X26800Y123900D02*
X27200D01*
X27600Y124300D01*
X28000Y123900D01*
X28400D01*
Y124300D01*
X28000Y124700D01*
X28400Y125100D01*
Y125500D01*
X28000D01*
X27600Y125100D01*
X27200Y125500D01*
X26800D01*
Y125100D01*
X27200Y124700D01*
X26800Y124300D01*
Y123900D01*
X135100Y188600D02*
X135500D01*
X135900Y189000D01*
X136300Y188600D01*
X136700D01*
Y189000D01*
X136300Y189400D01*
X136700Y189800D01*
Y190200D01*
X136300D01*
X135900Y189800D01*
X135500Y190200D01*
X135100D01*
Y189800D01*
X135500Y189400D01*
X135100Y189000D01*
Y188600D01*
X260300Y257400D02*
X260700D01*
X261100Y257800D01*
X261500Y257400D01*
X261900D01*
Y257800D01*
X261500Y258200D01*
X261900Y258600D01*
Y259000D01*
X261500D01*
X261100Y258600D01*
X260700Y259000D01*
X260300D01*
Y258600D01*
X260700Y258200D01*
X260300Y257800D01*
Y257400D01*
X198000Y32000D02*
X198400D01*
X198800Y32400D01*
X199200Y32000D01*
X199600D01*
Y32400D01*
X199200Y32800D01*
X199600Y33200D01*
Y33600D01*
X199200D01*
X198800Y33200D01*
X198400Y33600D01*
X198000D01*
Y33200D01*
X198400Y32800D01*
X198000Y32400D01*
Y32000D01*
X131824Y261038D02*
X132224D01*
X132624Y261438D01*
X133024Y261038D01*
X133424D01*
Y261438D01*
X133024Y261838D01*
X133424Y262238D01*
Y262638D01*
X133024D01*
X132624Y262238D01*
X132224Y262638D01*
X131824D01*
Y262238D01*
X132224Y261838D01*
X131824Y261438D01*
Y261038D01*
X52800Y64900D02*
X53200D01*
X53600Y65300D01*
X54000Y64900D01*
X54400D01*
Y65300D01*
X54000Y65700D01*
X54400Y66100D01*
Y66500D01*
X54000D01*
X53600Y66100D01*
X53200Y66500D01*
X52800D01*
Y66100D01*
X53200Y65700D01*
X52800Y65300D01*
Y64900D01*
X268100Y279500D02*
X268500D01*
X268900Y279900D01*
X269300Y279500D01*
X269700D01*
Y279900D01*
X269300Y280300D01*
X269700Y280700D01*
Y281100D01*
X269300D01*
X268900Y280700D01*
X268500Y281100D01*
X268100D01*
Y280700D01*
X268500Y280300D01*
X268100Y279900D01*
Y279500D01*
X253200Y226000D02*
X253600D01*
X254000Y226400D01*
X254400Y226000D01*
X254800D01*
Y226400D01*
X254400Y226800D01*
X254800Y227200D01*
Y227600D01*
X254400D01*
X254000Y227200D01*
X253600Y227600D01*
X253200D01*
Y227200D01*
X253600Y226800D01*
X253200Y226400D01*
Y226000D01*
X192300Y26875D02*
X192700D01*
X193100Y27275D01*
X193500Y26875D01*
X193900D01*
Y27275D01*
X193500Y27675D01*
X193900Y28075D01*
Y28475D01*
X193500D01*
X193100Y28075D01*
X192700Y28475D01*
X192300D01*
Y28075D01*
X192700Y27675D01*
X192300Y27275D01*
Y26875D01*
X333700Y61300D02*
X334100D01*
X334500Y61700D01*
X334900Y61300D01*
X335300D01*
Y61700D01*
X334900Y62100D01*
X335300Y62500D01*
Y62900D01*
X334900D01*
X334500Y62500D01*
X334100Y62900D01*
X333700D01*
Y62500D01*
X334100Y62100D01*
X333700Y61700D01*
Y61300D01*
X304900Y78000D02*
X305300D01*
X305700Y78400D01*
X306100Y78000D01*
X306500D01*
Y78400D01*
X306100Y78800D01*
X306500Y79200D01*
Y79600D01*
X306100D01*
X305700Y79200D01*
X305300Y79600D01*
X304900D01*
Y79200D01*
X305300Y78800D01*
X304900Y78400D01*
Y78000D01*
X228900Y29200D02*
X229300D01*
X229700Y29600D01*
X230100Y29200D01*
X230500D01*
Y29600D01*
X230100Y30000D01*
X230500Y30400D01*
Y30800D01*
X230100D01*
X229700Y30400D01*
X229300Y30800D01*
X228900D01*
Y30400D01*
X229300Y30000D01*
X228900Y29600D01*
Y29200D01*
X166400Y125900D02*
X166800D01*
X167200Y126300D01*
X167600Y125900D01*
X168000D01*
Y126300D01*
X167600Y126700D01*
X168000Y127100D01*
Y127500D01*
X167600D01*
X167200Y127100D01*
X166800Y127500D01*
X166400D01*
Y127100D01*
X166800Y126700D01*
X166400Y126300D01*
Y125900D01*
X139900Y74900D02*
X140300D01*
X140700Y75300D01*
X141100Y74900D01*
X141500D01*
Y75300D01*
X141100Y75700D01*
X141500Y76100D01*
Y76500D01*
X141100D01*
X140700Y76100D01*
X140300Y76500D01*
X139900D01*
Y76100D01*
X140300Y75700D01*
X139900Y75300D01*
Y74900D01*
X125500Y172400D02*
X125900D01*
X126300Y172800D01*
X126700Y172400D01*
X127100D01*
Y172800D01*
X126700Y173200D01*
X127100Y173600D01*
Y174000D01*
X126700D01*
X126300Y173600D01*
X125900Y174000D01*
X125500D01*
Y173600D01*
X125900Y173200D01*
X125500Y172800D01*
Y172400D01*
X128700Y178800D02*
X129100D01*
X129500Y179200D01*
X129900Y178800D01*
X130300D01*
Y179200D01*
X129900Y179600D01*
X130300Y180000D01*
Y180400D01*
X129900D01*
X129500Y180000D01*
X129100Y180400D01*
X128700D01*
Y180000D01*
X129100Y179600D01*
X128700Y179200D01*
Y178800D01*
X235400Y45100D02*
X235800D01*
X236200Y45500D01*
X236600Y45100D01*
X237000D01*
Y45500D01*
X236600Y45900D01*
X237000Y46300D01*
Y46700D01*
X236600D01*
X236200Y46300D01*
X235800Y46700D01*
X235400D01*
Y46300D01*
X235800Y45900D01*
X235400Y45500D01*
Y45100D01*
X227200Y54300D02*
X227600D01*
X228000Y54700D01*
X228400Y54300D01*
X228800D01*
Y54700D01*
X228400Y55100D01*
X228800Y55500D01*
Y55900D01*
X228400D01*
X228000Y55500D01*
X227600Y55900D01*
X227200D01*
Y55500D01*
X227600Y55100D01*
X227200Y54700D01*
Y54300D01*
X127824Y139600D02*
X128224D01*
X128624Y140000D01*
X129024Y139600D01*
X129424D01*
Y140000D01*
X129024Y140400D01*
X129424Y140800D01*
Y141200D01*
X129024D01*
X128624Y140800D01*
X128224Y141200D01*
X127824D01*
Y140800D01*
X128224Y140400D01*
X127824Y140000D01*
Y139600D01*
X374600Y81100D02*
X375000D01*
X375400Y81500D01*
X375800Y81100D01*
X376200D01*
Y81500D01*
X375800Y81900D01*
X376200Y82300D01*
Y82700D01*
X375800D01*
X375400Y82300D01*
X375000Y82700D01*
X374600D01*
Y82300D01*
X375000Y81900D01*
X374600Y81500D01*
Y81100D01*
X346405Y96795D02*
X346805D01*
X347205Y97195D01*
X347605Y96795D01*
X348005D01*
Y97195D01*
X347605Y97595D01*
X348005Y97995D01*
Y98395D01*
X347605D01*
X347205Y97995D01*
X346805Y98395D01*
X346405D01*
Y97995D01*
X346805Y97595D01*
X346405Y97195D01*
Y96795D01*
X370300Y54100D02*
X370700D01*
X371100Y54500D01*
X371500Y54100D01*
X371900D01*
Y54500D01*
X371500Y54900D01*
X371900Y55300D01*
Y55700D01*
X371500D01*
X371100Y55300D01*
X370700Y55700D01*
X370300D01*
Y55300D01*
X370700Y54900D01*
X370300Y54500D01*
Y54100D01*
X165200Y60200D02*
X165600D01*
X166000Y60600D01*
X166400Y60200D01*
X166800D01*
Y60600D01*
X166400Y61000D01*
X166800Y61400D01*
Y61800D01*
X166400D01*
X166000Y61400D01*
X165600Y61800D01*
X165200D01*
Y61400D01*
X165600Y61000D01*
X165200Y60600D01*
Y60200D01*
X185000Y22600D02*
X185400D01*
X185800Y23000D01*
X186200Y22600D01*
X186600D01*
Y23000D01*
X186200Y23400D01*
X186600Y23800D01*
Y24200D01*
X186200D01*
X185800Y23800D01*
X185400Y24200D01*
X185000D01*
Y23800D01*
X185400Y23400D01*
X185000Y23000D01*
Y22600D01*
X202161Y32503D02*
X202561D01*
X202961Y32903D01*
X203361Y32503D01*
X203761D01*
Y32903D01*
X203361Y33303D01*
X203761Y33703D01*
Y34103D01*
X203361D01*
X202961Y33703D01*
X202561Y34103D01*
X202161D01*
Y33703D01*
X202561Y33303D01*
X202161Y32903D01*
Y32503D01*
X285433Y42633D02*
X285833D01*
X286233Y43033D01*
X286633Y42633D01*
X287033D01*
Y43033D01*
X286633Y43433D01*
X287033Y43833D01*
Y44233D01*
X286633D01*
X286233Y43833D01*
X285833Y44233D01*
X285433D01*
Y43833D01*
X285833Y43433D01*
X285433Y43033D01*
Y42633D01*
X194200Y41900D02*
X194600D01*
X195000Y42300D01*
X195400Y41900D01*
X195800D01*
Y42300D01*
X195400Y42700D01*
X195800Y43100D01*
Y43500D01*
X195400D01*
X195000Y43100D01*
X194600Y43500D01*
X194200D01*
Y43100D01*
X194600Y42700D01*
X194200Y42300D01*
Y41900D01*
X166400D02*
X166800D01*
X167200Y42300D01*
X167600Y41900D01*
X168000D01*
Y42300D01*
X167600Y42700D01*
X168000Y43100D01*
Y43500D01*
X167600D01*
X167200Y43100D01*
X166800Y43500D01*
X166400D01*
Y43100D01*
X166800Y42700D01*
X166400Y42300D01*
Y41900D01*
X207067Y40400D02*
X207467D01*
X207867Y40800D01*
X208267Y40400D01*
X208667D01*
Y40800D01*
X208267Y41200D01*
X208667Y41600D01*
Y42000D01*
X208267D01*
X207867Y41600D01*
X207467Y42000D01*
X207067D01*
Y41600D01*
X207467Y41200D01*
X207067Y40800D01*
Y40400D01*
X114700Y103276D02*
X115100D01*
X115500Y103676D01*
X115900Y103276D01*
X116300D01*
Y103676D01*
X115900Y104076D01*
X116300Y104476D01*
Y104876D01*
X115900D01*
X115500Y104476D01*
X115100Y104876D01*
X114700D01*
Y104476D01*
X115100Y104076D01*
X114700Y103676D01*
Y103276D01*
X388800Y174500D02*
X389200D01*
X389600Y174900D01*
X390000Y174500D01*
X390400D01*
Y174900D01*
X390000Y175300D01*
X390400Y175700D01*
Y176100D01*
X390000D01*
X389600Y175700D01*
X389200Y176100D01*
X388800D01*
Y175700D01*
X389200Y175300D01*
X388800Y174900D01*
Y174500D01*
X284700Y167100D02*
X285100D01*
X285500Y167500D01*
X285900Y167100D01*
X286300D01*
Y167500D01*
X285900Y167900D01*
X286300Y168300D01*
Y168700D01*
X285900D01*
X285500Y168300D01*
X285100Y168700D01*
X284700D01*
Y168300D01*
X285100Y167900D01*
X284700Y167500D01*
Y167100D01*
X248800Y203000D02*
X249200D01*
X249600Y203400D01*
X250000Y203000D01*
X250400D01*
Y203400D01*
X250000Y203800D01*
X250400Y204200D01*
Y204600D01*
X250000D01*
X249600Y204200D01*
X249200Y204600D01*
X248800D01*
Y204200D01*
X249200Y203800D01*
X248800Y203400D01*
Y203000D01*
X376800Y253500D02*
X377200D01*
X377600Y253900D01*
X378000Y253500D01*
X378400D01*
Y253900D01*
X378000Y254300D01*
X378400Y254700D01*
Y255100D01*
X378000D01*
X377600Y254700D01*
X377200Y255100D01*
X376800D01*
Y254700D01*
X377200Y254300D01*
X376800Y253900D01*
Y253500D01*
X153900Y245683D02*
X154300D01*
X154700Y246083D01*
X155100Y245683D01*
X155500D01*
Y246083D01*
X155100Y246483D01*
X155500Y246883D01*
Y247283D01*
X155100D01*
X154700Y246883D01*
X154300Y247283D01*
X153900D01*
Y246883D01*
X154300Y246483D01*
X153900Y246083D01*
Y245683D01*
X59800Y162900D02*
X60200D01*
X60600Y163300D01*
X61000Y162900D01*
X61400D01*
Y163300D01*
X61000Y163700D01*
X61400Y164100D01*
Y164500D01*
X61000D01*
X60600Y164100D01*
X60200Y164500D01*
X59800D01*
Y164100D01*
X60200Y163700D01*
X59800Y163300D01*
Y162900D01*
X28773Y159627D02*
X29173D01*
X29573Y160027D01*
X29973Y159627D01*
X30373D01*
Y160027D01*
X29973Y160427D01*
X30373Y160827D01*
Y161227D01*
X29973D01*
X29573Y160827D01*
X29173Y161227D01*
X28773D01*
Y160827D01*
X29173Y160427D01*
X28773Y160027D01*
Y159627D01*
X90700Y270801D02*
X91100D01*
X91500Y271201D01*
X91900Y270801D01*
X92300D01*
Y271201D01*
X91900Y271601D01*
X92300Y272001D01*
Y272401D01*
X91900D01*
X91500Y272001D01*
X91100Y272401D01*
X90700D01*
Y272001D01*
X91100Y271601D01*
X90700Y271201D01*
Y270801D01*
X285800Y242100D02*
X286200D01*
X286600Y242500D01*
X287000Y242100D01*
X287400D01*
Y242500D01*
X287000Y242900D01*
X287400Y243300D01*
Y243700D01*
X287000D01*
X286600Y243300D01*
X286200Y243700D01*
X285800D01*
Y243300D01*
X286200Y242900D01*
X285800Y242500D01*
Y242100D01*
Y256400D02*
X286200D01*
X286600Y256800D01*
X287000Y256400D01*
X287400D01*
Y256800D01*
X287000Y257200D01*
X287400Y257600D01*
Y258000D01*
X287000D01*
X286600Y257600D01*
X286200Y258000D01*
X285800D01*
Y257600D01*
X286200Y257200D01*
X285800Y256800D01*
Y256400D01*
X8200Y91500D02*
X8600D01*
X9000Y91900D01*
X9400Y91500D01*
X9800D01*
Y91900D01*
X9400Y92300D01*
X9800Y92700D01*
Y93100D01*
X9400D01*
X9000Y92700D01*
X8600Y93100D01*
X8200D01*
Y92700D01*
X8600Y92300D01*
X8200Y91900D01*
Y91500D01*
D102*
X73424Y239081D02*
G03*
X73424Y239081I-800J0D01*
G01*
X83424D02*
G03*
X83424Y239081I-800J0D01*
G01*
X93424D02*
G03*
X93424Y239081I-800J0D01*
G01*
X103424D02*
G03*
X103424Y239081I-800J0D01*
G01*
X123424D02*
G03*
X123424Y239081I-800J0D01*
G01*
X133424D02*
G03*
X133424Y239081I-800J0D01*
G01*
X113424D02*
G03*
X113424Y239081I-800J0D01*
G01*
X366209Y267263D02*
G03*
X366209Y267263I-800J0D01*
G01*
Y277263D02*
G03*
X366209Y277263I-800J0D01*
G01*
M02*
