G04*
G04 #@! TF.GenerationSoftware,Altium Limited,Altium Designer,18.1.7 (191)*
G04*
G04 Layer_Color=128*
%FSLAX25Y25*%
%MOIN*%
G70*
G01*
G75*
%ADD98C,0.00200*%
D98*
X24624Y241081D02*
X27624D01*
X26124Y239581D02*
Y242581D01*
X14624Y241081D02*
X17624D01*
X16124Y239581D02*
Y242581D01*
X24624Y271081D02*
X27624D01*
X26124Y269581D02*
Y272581D01*
X14624Y271081D02*
X17624D01*
X16124Y269581D02*
Y272581D01*
X6016Y48418D02*
X9016D01*
X7516Y46918D02*
Y49918D01*
X6016Y38418D02*
X9016D01*
X7516Y36918D02*
Y39918D01*
X6016Y28418D02*
X9016D01*
X7516Y26918D02*
Y29918D01*
X6016Y18418D02*
X9016D01*
X7516Y16918D02*
Y19918D01*
X6016Y8418D02*
X9016D01*
X7516Y6918D02*
Y9918D01*
X70853Y239081D02*
X74396D01*
X72624Y237309D02*
Y240852D01*
X80853Y239081D02*
X84396D01*
X82624Y237309D02*
Y240852D01*
X90852Y239081D02*
X94396D01*
X92624Y237309D02*
Y240852D01*
X100853Y239081D02*
X104396D01*
X102624Y237309D02*
Y240852D01*
X120852Y239081D02*
X124396D01*
X122624Y237309D02*
Y240852D01*
X130852Y239081D02*
X134396D01*
X132624Y237309D02*
Y240852D01*
X110853Y239081D02*
X114396D01*
X112624Y237309D02*
Y240852D01*
X382767Y231918D02*
X384342D01*
X383554Y231130D02*
Y232705D01*
X382767Y254162D02*
X384342D01*
X383554Y253374D02*
Y254949D01*
X374105Y250914D02*
X376074D01*
X375090Y249930D02*
Y251898D01*
X374105Y235166D02*
X376074D01*
X375090Y234182D02*
Y236150D01*
X363637Y267263D02*
X367180D01*
X365409Y265491D02*
Y269035D01*
X363637Y277263D02*
X367180D01*
X365409Y275491D02*
Y279034D01*
X191124Y131200D02*
X194124D01*
X192624Y129700D02*
Y132700D01*
X181124Y131200D02*
X184124D01*
X182624Y129700D02*
Y132700D01*
X171124Y131200D02*
X174124D01*
X172624Y129700D02*
Y132700D01*
X161124Y131200D02*
X164124D01*
X162624Y129700D02*
Y132700D01*
X151124Y131200D02*
X154124D01*
X152624Y129700D02*
Y132700D01*
X141124Y131200D02*
X144124D01*
X142624Y129700D02*
Y132700D01*
X131124Y131200D02*
X134124D01*
X132624Y129700D02*
Y132700D01*
X121124Y131200D02*
X124124D01*
X122624Y129700D02*
Y132700D01*
X111124Y131200D02*
X114124D01*
X112624Y129700D02*
Y132700D01*
X101124Y131200D02*
X104124D01*
X102624Y129700D02*
Y132700D01*
X91124Y131200D02*
X94124D01*
X92624Y129700D02*
Y132700D01*
X81124Y131200D02*
X84124D01*
X82624Y129700D02*
Y132700D01*
X71124Y131200D02*
X74124D01*
X72624Y129700D02*
Y132700D01*
X61124Y131200D02*
X64124D01*
X62624Y129700D02*
Y132700D01*
X51124Y131200D02*
X54124D01*
X52624Y129700D02*
Y132700D01*
X41124Y131200D02*
X44124D01*
X42624Y129700D02*
Y132700D01*
X31124Y131200D02*
X34124D01*
X32624Y129700D02*
Y132700D01*
X21124Y131200D02*
X24124D01*
X22624Y129700D02*
Y132700D01*
X11124Y131200D02*
X14124D01*
X12624Y129700D02*
Y132700D01*
X191124Y221200D02*
X194124D01*
X192624Y219700D02*
Y222700D01*
X181124Y221200D02*
X184124D01*
X182624Y219700D02*
Y222700D01*
X171124Y221200D02*
X174124D01*
X172624Y219700D02*
Y222700D01*
X161124Y221200D02*
X164124D01*
X162624Y219700D02*
Y222700D01*
X151124Y221200D02*
X154124D01*
X152624Y219700D02*
Y222700D01*
X141124Y221200D02*
X144124D01*
X142624Y219700D02*
Y222700D01*
X131124Y221200D02*
X134124D01*
X132624Y219700D02*
Y222700D01*
X121124Y221200D02*
X124124D01*
X122624Y219700D02*
Y222700D01*
X111124Y221200D02*
X114124D01*
X112624Y219700D02*
Y222700D01*
X101124Y221200D02*
X104124D01*
X102624Y219700D02*
Y222700D01*
X91124Y221200D02*
X94124D01*
X92624Y219700D02*
Y222700D01*
X81124Y221200D02*
X84124D01*
X82624Y219700D02*
Y222700D01*
X71124Y221200D02*
X74124D01*
X72624Y219700D02*
Y222700D01*
X61124Y221200D02*
X64124D01*
X62624Y219700D02*
Y222700D01*
X51124Y221200D02*
X54124D01*
X52624Y219700D02*
Y222700D01*
X41124Y221200D02*
X44124D01*
X42624Y219700D02*
Y222700D01*
X31124Y221200D02*
X34124D01*
X32624Y219700D02*
Y222700D01*
X21124Y221200D02*
X24124D01*
X22624Y219700D02*
Y222700D01*
X11124Y221200D02*
X14124D01*
X12624Y219700D02*
Y222700D01*
X300450Y72932D02*
X301950D01*
X301200Y72182D02*
Y73682D01*
X387150Y160645D02*
X388650D01*
X387900Y159895D02*
Y161395D01*
X369150Y160500D02*
X370650D01*
X369900Y159750D02*
Y161250D01*
X313642Y27600D02*
X315142D01*
X314392Y26850D02*
Y28350D01*
X325550Y15300D02*
X327050D01*
X326300Y14550D02*
Y16050D01*
X325750Y23300D02*
X327250D01*
X326500Y22550D02*
Y24050D01*
X371650Y14919D02*
X373150D01*
X372400Y14169D02*
Y15669D01*
X369450Y49200D02*
X370950D01*
X370200Y48450D02*
Y49950D01*
X371550Y62400D02*
X373050D01*
X372300Y61650D02*
Y63150D01*
X371606Y70900D02*
X373106D01*
X372356Y70150D02*
Y71650D01*
X365350Y69700D02*
X366850D01*
X366100Y68950D02*
Y70450D01*
X353150Y79861D02*
X354650D01*
X353900Y79111D02*
Y80611D01*
X353050Y58100D02*
X354550D01*
X353800Y57350D02*
Y58850D01*
X352450Y22300D02*
X353950D01*
X353200Y21550D02*
Y23050D01*
X357688Y32505D02*
X359188D01*
X358438Y31755D02*
Y33255D01*
X352050Y44000D02*
X353550D01*
X352800Y43250D02*
Y44750D01*
X328799Y150600D02*
X330299D01*
X329549Y149850D02*
Y151350D01*
X319550Y150500D02*
X321050D01*
X320300Y149750D02*
Y151250D01*
X293482Y135200D02*
X294982D01*
X294232Y134450D02*
Y135950D01*
X287983Y127500D02*
X289483D01*
X288733Y126750D02*
Y128250D01*
X300450Y113900D02*
X301950D01*
X301200Y113150D02*
Y114650D01*
X287950Y107900D02*
X289450D01*
X288700Y107150D02*
Y108650D01*
X287742Y84600D02*
X289242D01*
X288492Y83850D02*
Y85350D01*
X287742Y69400D02*
X289242D01*
X288492Y68650D02*
Y70150D01*
X15650Y16763D02*
X17150D01*
X16400Y16013D02*
Y17513D01*
X15550Y34718D02*
X17050D01*
X16300Y33968D02*
Y35468D01*
X45750Y164758D02*
X47250D01*
X46500Y164008D02*
Y165508D01*
X135450Y15900D02*
X136950D01*
X136200Y15150D02*
Y16650D01*
X162150Y15800D02*
X163650D01*
X162900Y15050D02*
Y16550D01*
X390250Y81600D02*
X391750D01*
X391000Y80850D02*
Y82350D01*
X390150Y70500D02*
X391650D01*
X390900Y69750D02*
Y71250D01*
X390050Y58300D02*
X391550D01*
X390800Y57550D02*
Y59050D01*
X389950Y45300D02*
X391450D01*
X390700Y44550D02*
Y46050D01*
X389950Y32979D02*
X391450D01*
X390700Y32229D02*
Y33729D01*
X389950Y19700D02*
X391450D01*
X390700Y18950D02*
Y20450D01*
X389150Y3900D02*
X390650D01*
X389900Y3150D02*
Y4650D01*
X372350Y3900D02*
X373850D01*
X373100Y3150D02*
Y4650D01*
X355250Y3900D02*
X356750D01*
X356000Y3150D02*
Y4650D01*
X336903Y3900D02*
X338403D01*
X337653Y3150D02*
Y4650D01*
X338850Y51959D02*
X340350D01*
X339600Y51209D02*
Y52709D01*
X325350Y51517D02*
X326850D01*
X326100Y50767D02*
Y52267D01*
X300650Y58400D02*
X302150D01*
X301400Y57650D02*
Y59150D01*
X300350Y44567D02*
X301850D01*
X301100Y43817D02*
Y45316D01*
X236250Y32303D02*
X237750D01*
X237000Y31553D02*
Y33053D01*
X257250Y41919D02*
X258750D01*
X258000Y41169D02*
Y42669D01*
X219250Y54053D02*
X220750D01*
X220000Y53303D02*
Y54803D01*
X173650Y51800D02*
X175150D01*
X174400Y51050D02*
Y52550D01*
X51050Y79677D02*
X52550D01*
X51800Y78927D02*
Y80427D01*
X8250Y118700D02*
X9750D01*
X9000Y117950D02*
Y119450D01*
X48550Y123400D02*
X50050D01*
X49300Y122650D02*
Y124150D01*
X28150Y113100D02*
X29650D01*
X28900Y112350D02*
Y113850D01*
X53350Y156400D02*
X54850D01*
X54100Y155650D02*
Y157150D01*
X52250Y145371D02*
X53750D01*
X53000Y144621D02*
Y146121D01*
X53050Y233100D02*
X54550D01*
X53800Y232350D02*
Y233850D01*
X229344Y3100D02*
X230844D01*
X230094Y2350D02*
Y3850D01*
X217974Y3100D02*
X219474D01*
X218724Y2350D02*
Y3850D01*
X206398Y3100D02*
X207898D01*
X207148Y2350D02*
Y3850D01*
X195139Y3100D02*
X196639D01*
X195889Y2350D02*
Y3850D01*
X181874Y3100D02*
X183374D01*
X182624Y2350D02*
Y3850D01*
X169274Y3100D02*
X170774D01*
X170024Y2350D02*
Y3850D01*
X157674Y3100D02*
X159174D01*
X158424Y2350D02*
Y3850D01*
X146274Y3100D02*
X147774D01*
X147024Y2350D02*
Y3850D01*
X134574Y3100D02*
X136074D01*
X135324Y2350D02*
Y3850D01*
X123074Y3100D02*
X124574D01*
X123824Y2350D02*
Y3850D01*
X111874Y3100D02*
X113374D01*
X112624Y2350D02*
Y3850D01*
X276550Y38900D02*
X278050D01*
X277300Y38150D02*
Y39650D01*
X269850Y32505D02*
X271350D01*
X270600Y31755D02*
Y33255D01*
X262850Y25705D02*
X264350D01*
X263600Y24955D02*
Y26455D01*
X255950Y19400D02*
X257450D01*
X256700Y18650D02*
Y20150D01*
X330550Y184900D02*
X332050D01*
X331300Y184150D02*
Y185650D01*
X312050Y184700D02*
X313550D01*
X312800Y183950D02*
Y185450D01*
X330550Y195000D02*
X332050D01*
X331300Y194250D02*
Y195750D01*
X312050Y195000D02*
X313550D01*
X312800Y194250D02*
Y195750D01*
X254750Y260641D02*
X256250D01*
X255500Y259891D02*
Y261391D01*
X247968Y253300D02*
X249468D01*
X248718Y252550D02*
Y254050D01*
X264850Y206996D02*
X266350D01*
X265600Y206246D02*
Y207746D01*
X273950Y224600D02*
X275450D01*
X274700Y223850D02*
Y225350D01*
X274050Y235407D02*
X275550D01*
X274800Y234657D02*
Y236157D01*
X273950Y245000D02*
X275450D01*
X274700Y244250D02*
Y245750D01*
X273950Y255190D02*
X275450D01*
X274700Y254440D02*
Y255940D01*
X248714Y231000D02*
X250214D01*
X249464Y230250D02*
Y231750D01*
X261550Y240142D02*
X263050D01*
X262300Y239392D02*
Y240892D01*
X304950Y239924D02*
X306450D01*
X305700Y239174D02*
Y240674D01*
X304950Y246200D02*
X306450D01*
X305700Y245450D02*
Y246950D01*
X304950Y252700D02*
X306450D01*
X305700Y251950D02*
Y253450D01*
X271774Y263400D02*
X273274D01*
X272524Y262650D02*
Y264150D01*
X237750Y265115D02*
X239250D01*
X238500Y264365D02*
Y265865D01*
X239450Y271500D02*
X240950D01*
X240200Y270750D02*
Y272250D01*
X187068Y284100D02*
X188568D01*
X187818Y283350D02*
Y284850D01*
X96150Y250914D02*
X97650D01*
X96900Y250164D02*
Y251664D01*
X106150Y250914D02*
X107650D01*
X106900Y250164D02*
Y251664D01*
X115550Y250865D02*
X117050D01*
X116300Y250115D02*
Y251615D01*
X126150Y250865D02*
X127650D01*
X126900Y250115D02*
Y251615D01*
X136350Y250900D02*
X137850D01*
X137100Y250150D02*
Y251650D01*
X142350Y250000D02*
X143850D01*
X143100Y249250D02*
Y250750D01*
X68550Y291200D02*
X70050D01*
X69300Y290450D02*
Y291950D01*
X81650Y291200D02*
X83150D01*
X82400Y290450D02*
Y291950D01*
X93550Y291200D02*
X95050D01*
X94300Y290450D02*
Y291950D01*
X105909Y271900D02*
X107409D01*
X106659Y271150D02*
Y272650D01*
X93550Y259600D02*
X95050D01*
X94300Y258850D02*
Y260350D01*
X105850Y259700D02*
X107350D01*
X106600Y258950D02*
Y260450D01*
X116250Y259700D02*
X117750D01*
X117000Y258950D02*
Y260450D01*
X125415Y259600D02*
X126915D01*
X126165Y258850D02*
Y260350D01*
X139550Y261800D02*
X141050D01*
X140300Y261050D02*
Y262550D01*
X120950Y270200D02*
X122450D01*
X121700Y269450D02*
Y270950D01*
X117350Y274000D02*
X118850D01*
X118100Y273250D02*
Y274750D01*
X133850Y281800D02*
X135350D01*
X134600Y281050D02*
Y282550D01*
X252450Y273100D02*
X253950D01*
X253200Y272350D02*
Y273850D01*
X213650Y281700D02*
X215150D01*
X214400Y280950D02*
Y282450D01*
X200250Y281500D02*
X201750D01*
X201000Y280750D02*
Y282250D01*
X207350Y264600D02*
X208850D01*
X208100Y263850D02*
Y265350D01*
X198850Y267400D02*
X200350D01*
X199600Y266650D02*
Y268150D01*
X198750Y273273D02*
X200250D01*
X199500Y272523D02*
Y274023D01*
X21475Y161970D02*
X22975D01*
X22225Y161220D02*
Y162720D01*
X21475Y181102D02*
X22975D01*
X22225Y180352D02*
Y181852D01*
X21475Y192913D02*
X22975D01*
X22225Y192163D02*
Y193663D01*
X31874Y181102D02*
X33374D01*
X32624Y180352D02*
Y181852D01*
X31874Y192913D02*
X33374D01*
X32624Y192163D02*
Y193663D01*
X75582Y163700D02*
X77082D01*
X76332Y162950D02*
Y164450D01*
X384250Y280000D02*
X385750D01*
X385000Y279250D02*
Y280750D01*
X384250Y140000D02*
X385750D01*
X385000Y139250D02*
Y140750D01*
X384250Y112000D02*
X385750D01*
X385000Y111250D02*
Y112750D01*
X370250Y140000D02*
X371750D01*
X371000Y139250D02*
Y140750D01*
X363250Y126000D02*
X364750D01*
X364000Y125250D02*
Y126750D01*
X370250Y112000D02*
X371750D01*
X371000Y111250D02*
Y112750D01*
X363250Y98000D02*
X364750D01*
X364000Y97250D02*
Y98750D01*
X356250Y280000D02*
X357750D01*
X357000Y279250D02*
Y280750D01*
X356250Y224000D02*
X357750D01*
X357000Y223250D02*
Y224750D01*
X349250Y182000D02*
X350750D01*
X350000Y181250D02*
Y182750D01*
X356250Y140000D02*
X357750D01*
X357000Y139250D02*
Y140750D01*
X356250Y112000D02*
X357750D01*
X357000Y111250D02*
Y112750D01*
X342250Y280000D02*
X343750D01*
X343000Y279250D02*
Y280750D01*
X342250Y252000D02*
X343750D01*
X343000Y251250D02*
Y252750D01*
X335250Y238000D02*
X336750D01*
X336000Y237250D02*
Y238750D01*
X342250Y224000D02*
X343750D01*
X343000Y223250D02*
Y224750D01*
X342250Y196000D02*
X343750D01*
X343000Y195250D02*
Y196750D01*
X335250Y126000D02*
X336750D01*
X336000Y125250D02*
Y126750D01*
X335250Y42000D02*
X336750D01*
X336000Y41250D02*
Y42750D01*
X342250Y28000D02*
X343750D01*
X343000Y27250D02*
Y28750D01*
X335250Y14000D02*
X336750D01*
X336000Y13250D02*
Y14750D01*
X328250Y280000D02*
X329750D01*
X329000Y279250D02*
Y280750D01*
X328250Y252000D02*
X329750D01*
X329000Y251250D02*
Y252750D01*
X328250Y224000D02*
X329750D01*
X329000Y223250D02*
Y224750D01*
X321250Y126000D02*
X322750D01*
X322000Y125250D02*
Y126750D01*
X321250Y98000D02*
X322750D01*
X322000Y97250D02*
Y98750D01*
X314250Y280000D02*
X315750D01*
X315000Y279250D02*
Y280750D01*
X314250Y252000D02*
X315750D01*
X315000Y251250D02*
Y252750D01*
X314250Y224000D02*
X315750D01*
X315000Y223250D02*
Y224750D01*
X314250Y140000D02*
X315750D01*
X315000Y139250D02*
Y140750D01*
X314250Y84000D02*
X315750D01*
X315000Y83250D02*
Y84750D01*
X314250Y56000D02*
X315750D01*
X315000Y55250D02*
Y56750D01*
X300250Y280000D02*
X301750D01*
X301000Y279250D02*
Y280750D01*
X300250Y196000D02*
X301750D01*
X301000Y195250D02*
Y196750D01*
X293250Y182000D02*
X294750D01*
X294000Y181250D02*
Y182750D01*
X293250Y154000D02*
X294750D01*
X294000Y153250D02*
Y154750D01*
X286250Y280000D02*
X287750D01*
X287000Y279250D02*
Y280750D01*
X286250Y196000D02*
X287750D01*
X287000Y195250D02*
Y196750D01*
X279250Y126000D02*
X280750D01*
X280000Y125250D02*
Y126750D01*
X279250Y98000D02*
X280750D01*
X280000Y97250D02*
Y98750D01*
X279250Y70000D02*
X280750D01*
X280000Y69250D02*
Y70750D01*
X279250Y14000D02*
X280750D01*
X280000Y13250D02*
Y14750D01*
X272250Y196000D02*
X273750D01*
X273000Y195250D02*
Y196750D01*
X272250Y168000D02*
X273750D01*
X273000Y167250D02*
Y168750D01*
X265250Y154000D02*
X266750D01*
X266000Y153250D02*
Y154750D01*
X272250Y140000D02*
X273750D01*
X273000Y139250D02*
Y140750D01*
X265250Y126000D02*
X266750D01*
X266000Y125250D02*
Y126750D01*
X265250Y98000D02*
X266750D01*
X266000Y97250D02*
Y98750D01*
X272250Y84000D02*
X273750D01*
X273000Y83250D02*
Y84750D01*
X265250Y70000D02*
X266750D01*
X266000Y69250D02*
Y70750D01*
X272250Y56000D02*
X273750D01*
X273000Y55250D02*
Y56750D01*
X265250Y14000D02*
X266750D01*
X266000Y13250D02*
Y14750D01*
X251250Y182000D02*
X252750D01*
X252000Y181250D02*
Y182750D01*
X258250Y168000D02*
X259750D01*
X259000Y167250D02*
Y168750D01*
X251250Y154000D02*
X252750D01*
X252000Y153250D02*
Y154750D01*
X258250Y140000D02*
X259750D01*
X259000Y139250D02*
Y140750D01*
X251250Y126000D02*
X252750D01*
X252000Y125250D02*
Y126750D01*
X258250Y84000D02*
X259750D01*
X259000Y83250D02*
Y84750D01*
X258250Y56000D02*
X259750D01*
X259000Y55250D02*
Y56750D01*
X237250Y238000D02*
X238750D01*
X238000Y237250D02*
Y238750D01*
X244250Y196000D02*
X245750D01*
X245000Y195250D02*
Y196750D01*
X237250Y182000D02*
X238750D01*
X238000Y181250D02*
Y182750D01*
X244250Y168000D02*
X245750D01*
X245000Y167250D02*
Y168750D01*
X237250Y154000D02*
X238750D01*
X238000Y153250D02*
Y154750D01*
X244250Y140000D02*
X245750D01*
X245000Y139250D02*
Y140750D01*
X237250Y126000D02*
X238750D01*
X238000Y125250D02*
Y126750D01*
X223250Y238000D02*
X224750D01*
X224000Y237250D02*
Y238750D01*
X230250Y224000D02*
X231750D01*
X231000Y223250D02*
Y224750D01*
X223250Y210000D02*
X224750D01*
X224000Y209250D02*
Y210750D01*
X230250Y196000D02*
X231750D01*
X231000Y195250D02*
Y196750D01*
X223250Y182000D02*
X224750D01*
X224000Y181250D02*
Y182750D01*
X230250Y168000D02*
X231750D01*
X231000Y167250D02*
Y168750D01*
X223250Y154000D02*
X224750D01*
X224000Y153250D02*
Y154750D01*
X230250Y140000D02*
X231750D01*
X231000Y139250D02*
Y140750D01*
X223250Y126000D02*
X224750D01*
X224000Y125250D02*
Y126750D01*
X209250Y238000D02*
X210750D01*
X210000Y237250D02*
Y238750D01*
X216250Y224000D02*
X217750D01*
X217000Y223250D02*
Y224750D01*
X209250Y210000D02*
X210750D01*
X210000Y209250D02*
Y210750D01*
X216250Y196000D02*
X217750D01*
X217000Y195250D02*
Y196750D01*
X209250Y182000D02*
X210750D01*
X210000Y181250D02*
Y182750D01*
X216250Y168000D02*
X217750D01*
X217000Y167250D02*
Y168750D01*
X209250Y154000D02*
X210750D01*
X210000Y153250D02*
Y154750D01*
X216250Y140000D02*
X217750D01*
X217000Y139250D02*
Y140750D01*
X209250Y126000D02*
X210750D01*
X210000Y125250D02*
Y126750D01*
X202250Y224000D02*
X203750D01*
X203000Y223250D02*
Y224750D01*
X195250Y210000D02*
X196750D01*
X196000Y209250D02*
Y210750D01*
X202250Y196000D02*
X203750D01*
X203000Y195250D02*
Y196750D01*
X195250Y182000D02*
X196750D01*
X196000Y181250D02*
Y182750D01*
X202250Y168000D02*
X203750D01*
X203000Y167250D02*
Y168750D01*
X195250Y154000D02*
X196750D01*
X196000Y153250D02*
Y154750D01*
X202250Y140000D02*
X203750D01*
X203000Y139250D02*
Y140750D01*
X202250Y84000D02*
X203750D01*
X203000Y83250D02*
Y84750D01*
X181250Y210000D02*
X182750D01*
X182000Y209250D02*
Y210750D01*
X188250Y196000D02*
X189750D01*
X189000Y195250D02*
Y196750D01*
X181250Y182000D02*
X182750D01*
X182000Y181250D02*
Y182750D01*
X188250Y168000D02*
X189750D01*
X189000Y167250D02*
Y168750D01*
X188250Y140000D02*
X189750D01*
X189000Y139250D02*
Y140750D01*
X181250Y98000D02*
X182750D01*
X182000Y97250D02*
Y98750D01*
X167250Y238000D02*
X168750D01*
X168000Y237250D02*
Y238750D01*
X167250Y210000D02*
X168750D01*
X168000Y209250D02*
Y210750D01*
X174250Y196000D02*
X175750D01*
X175000Y195250D02*
Y196750D01*
X167250Y182000D02*
X168750D01*
X168000Y181250D02*
Y182750D01*
X174250Y168000D02*
X175750D01*
X175000Y167250D02*
Y168750D01*
X167250Y154000D02*
X168750D01*
X168000Y153250D02*
Y154750D01*
X174250Y140000D02*
X175750D01*
X175000Y139250D02*
Y140750D01*
X174250Y112000D02*
X175750D01*
X175000Y111250D02*
Y112750D01*
X174250Y84000D02*
X175750D01*
X175000Y83250D02*
Y84750D01*
X160250Y252000D02*
X161750D01*
X161000Y251250D02*
Y252750D01*
X160250Y196000D02*
X161750D01*
X161000Y195250D02*
Y196750D01*
X160250Y168000D02*
X161750D01*
X161000Y167250D02*
Y168750D01*
X153250Y154000D02*
X154750D01*
X154000Y153250D02*
Y154750D01*
X139250Y210000D02*
X140750D01*
X140000Y209250D02*
Y210750D01*
X146250Y196000D02*
X147750D01*
X147000Y195250D02*
Y196750D01*
X146250Y168000D02*
X147750D01*
X147000Y167250D02*
Y168750D01*
X139250Y154000D02*
X140750D01*
X140000Y153250D02*
Y154750D01*
X146250Y112000D02*
X147750D01*
X147000Y111250D02*
Y112750D01*
X125250Y154000D02*
X126750D01*
X126000Y153250D02*
Y154750D01*
X132250Y112000D02*
X133750D01*
X133000Y111250D02*
Y112750D01*
X125250Y98000D02*
X126750D01*
X126000Y97250D02*
Y98750D01*
X132250Y84000D02*
X133750D01*
X133000Y83250D02*
Y84750D01*
X125250Y70000D02*
X126750D01*
X126000Y69250D02*
Y70750D01*
X132250Y28000D02*
X133750D01*
X133000Y27250D02*
Y28750D01*
X111250Y154000D02*
X112750D01*
X112000Y153250D02*
Y154750D01*
X111250Y70000D02*
X112750D01*
X112000Y69250D02*
Y70750D01*
X118250Y28000D02*
X119750D01*
X119000Y27250D02*
Y28750D01*
X111250Y14000D02*
X112750D01*
X112000Y13250D02*
Y14750D01*
X104250Y168000D02*
X105750D01*
X105000Y167250D02*
Y168750D01*
X97250Y98000D02*
X98750D01*
X98000Y97250D02*
Y98750D01*
X104250Y56000D02*
X105750D01*
X105000Y55250D02*
Y56750D01*
X97250Y42000D02*
X98750D01*
X98000Y41250D02*
Y42750D01*
X97250Y14000D02*
X98750D01*
X98000Y13250D02*
Y14750D01*
X90250Y56000D02*
X91750D01*
X91000Y55250D02*
Y56750D01*
X83250Y42000D02*
X84750D01*
X84000Y41250D02*
Y42750D01*
X83250Y14000D02*
X84750D01*
X84000Y13250D02*
Y14750D01*
X76250Y252000D02*
X77750D01*
X77000Y251250D02*
Y252750D01*
X69250Y210000D02*
X70750D01*
X70000Y209250D02*
Y210750D01*
X76250Y84000D02*
X77750D01*
X77000Y83250D02*
Y84750D01*
X76250Y56000D02*
X77750D01*
X77000Y55250D02*
Y56750D01*
X69250Y42000D02*
X70750D01*
X70000Y41250D02*
Y42750D01*
X76250Y28000D02*
X77750D01*
X77000Y27250D02*
Y28750D01*
X69250Y14000D02*
X70750D01*
X70000Y13250D02*
Y14750D01*
X62250Y280000D02*
X63750D01*
X63000Y279250D02*
Y280750D01*
X55250Y266000D02*
X56750D01*
X56000Y265250D02*
Y266750D01*
X62250Y252000D02*
X63750D01*
X63000Y251250D02*
Y252750D01*
X55250Y210000D02*
X56750D01*
X56000Y209250D02*
Y210750D01*
X55250Y182000D02*
X56750D01*
X56000Y181250D02*
Y182750D01*
X62250Y56000D02*
X63750D01*
X63000Y55250D02*
Y56750D01*
X55250Y42000D02*
X56750D01*
X56000Y41250D02*
Y42750D01*
X62250Y28000D02*
X63750D01*
X63000Y27250D02*
Y28750D01*
X55250Y14000D02*
X56750D01*
X56000Y13250D02*
Y14750D01*
X48250Y280000D02*
X49750D01*
X49000Y279250D02*
Y280750D01*
X41250Y266000D02*
X42750D01*
X42000Y265250D02*
Y266750D01*
X48250Y252000D02*
X49750D01*
X49000Y251250D02*
Y252750D01*
X41250Y238000D02*
X42750D01*
X42000Y237250D02*
Y238750D01*
X41250Y210000D02*
X42750D01*
X42000Y209250D02*
Y210750D01*
X48250Y196000D02*
X49750D01*
X49000Y195250D02*
Y196750D01*
X41250Y182000D02*
X42750D01*
X42000Y181250D02*
Y182750D01*
X41250Y154000D02*
X42750D01*
X42000Y153250D02*
Y154750D01*
X41250Y70000D02*
X42750D01*
X42000Y69250D02*
Y70750D01*
X34250Y280000D02*
X35750D01*
X35000Y279250D02*
Y280750D01*
X34250Y252000D02*
X35750D01*
X35000Y251250D02*
Y252750D01*
X34250Y56000D02*
X35750D01*
X35000Y55250D02*
Y56750D01*
X34250Y28000D02*
X35750D01*
X35000Y27250D02*
Y28750D01*
X20250Y280000D02*
X21750D01*
X21000Y279250D02*
Y280750D01*
X20250Y252000D02*
X21750D01*
X21000Y251250D02*
Y252750D01*
X20250Y56000D02*
X21750D01*
X21000Y55250D02*
Y56750D01*
X357700Y189900D02*
X360500D01*
X359100Y188500D02*
Y191300D01*
X329729Y189881D02*
X331629D01*
X330679Y188931D02*
Y190831D01*
X340050Y65400D02*
X341950D01*
X341000Y64450D02*
Y66350D01*
X340050Y91200D02*
X341950D01*
X341000Y90250D02*
Y92150D01*
X311350Y217400D02*
X313250D01*
X312300Y216450D02*
Y218350D01*
X291250Y233500D02*
X293150D01*
X292200Y232550D02*
Y234450D01*
X162550Y256719D02*
X164450D01*
X163500Y255769D02*
Y257669D01*
X165290Y252800D02*
X167190D01*
X166240Y251850D02*
Y253750D01*
X247650Y287100D02*
X249550D01*
X248600Y286150D02*
Y288050D01*
X62750Y110500D02*
X64650D01*
X63700Y109550D02*
Y111450D01*
X333150Y203300D02*
X335050D01*
X334100Y202350D02*
Y204250D01*
X76650Y204000D02*
X78550D01*
X77600Y203050D02*
Y204950D01*
X107150Y204000D02*
X109050D01*
X108100Y203050D02*
Y204950D01*
X107150Y185543D02*
X109050D01*
X108100Y184593D02*
Y186493D01*
X52750Y100177D02*
X54650D01*
X53700Y99227D02*
Y101127D01*
X237250Y22000D02*
X239150D01*
X238200Y21050D02*
Y22950D01*
X232350Y21700D02*
X234250D01*
X233300Y20750D02*
Y22650D01*
X246150Y8500D02*
X248050D01*
X247100Y7550D02*
Y9450D01*
X217050Y30600D02*
X218950D01*
X218000Y29650D02*
Y31550D01*
X161950Y56100D02*
X163850D01*
X162900Y55150D02*
Y57050D01*
X167650Y56500D02*
X169550D01*
X168600Y55550D02*
Y57450D01*
X188350Y58900D02*
X190250D01*
X189300Y57950D02*
Y59850D01*
X243850Y56400D02*
X245750D01*
X244800Y55450D02*
Y57350D01*
X76650Y226600D02*
X78550D01*
X77600Y225650D02*
Y227550D01*
X67050Y128000D02*
X68950D01*
X68000Y127050D02*
Y128950D01*
X72969Y173419D02*
X74869D01*
X73919Y172469D02*
Y174369D01*
X251350Y44600D02*
X253250D01*
X252300Y43650D02*
Y45550D01*
X243250Y20000D02*
X245150D01*
X244200Y19050D02*
Y20950D01*
X191050Y34888D02*
X192950D01*
X192000Y33938D02*
Y35838D01*
X36627Y95177D02*
X38527D01*
X37577Y94227D02*
Y96127D01*
X206050Y33600D02*
X207950D01*
X207000Y32650D02*
Y34550D01*
X245550Y33600D02*
X247450D01*
X246500Y32650D02*
Y34550D01*
X225150Y19400D02*
X227050D01*
X226100Y18450D02*
Y20350D01*
X121450Y11600D02*
X123350D01*
X122400Y10650D02*
Y12550D01*
X26650Y124700D02*
X28550D01*
X27600Y123750D02*
Y125650D01*
X134950Y189400D02*
X136850D01*
X135900Y188450D02*
Y190350D01*
X260150Y258200D02*
X262050D01*
X261100Y257250D02*
Y259150D01*
X197850Y32800D02*
X199750D01*
X198800Y31850D02*
Y33750D01*
X131674Y261838D02*
X133574D01*
X132624Y260888D02*
Y262788D01*
X52650Y65700D02*
X54550D01*
X53600Y64750D02*
Y66650D01*
X267950Y280300D02*
X269850D01*
X268900Y279350D02*
Y281250D01*
X253050Y226800D02*
X254950D01*
X254000Y225850D02*
Y227750D01*
X192150Y27675D02*
X194050D01*
X193100Y26725D02*
Y28625D01*
X333550Y62100D02*
X335450D01*
X334500Y61150D02*
Y63050D01*
X304750Y78800D02*
X306650D01*
X305700Y77850D02*
Y79750D01*
X228750Y30000D02*
X230650D01*
X229700Y29050D02*
Y30950D01*
X166250Y126700D02*
X168150D01*
X167200Y125750D02*
Y127650D01*
X139750Y75700D02*
X141650D01*
X140700Y74750D02*
Y76650D01*
X125350Y173200D02*
X127250D01*
X126300Y172250D02*
Y174150D01*
X128550Y179600D02*
X130450D01*
X129500Y178650D02*
Y180550D01*
X235250Y45900D02*
X237150D01*
X236200Y44950D02*
Y46850D01*
X227050Y55100D02*
X228950D01*
X228000Y54150D02*
Y56050D01*
X127674Y140400D02*
X129574D01*
X128624Y139450D02*
Y141350D01*
X374450Y81900D02*
X376350D01*
X375400Y80950D02*
Y82850D01*
X346255Y97595D02*
X348155D01*
X347205Y96645D02*
Y98545D01*
X370150Y54900D02*
X372050D01*
X371100Y53950D02*
Y55850D01*
X165050Y61000D02*
X166950D01*
X166000Y60050D02*
Y61950D01*
X184850Y23400D02*
X186750D01*
X185800Y22450D02*
Y24350D01*
X202011Y33303D02*
X203911D01*
X202961Y32353D02*
Y34253D01*
X285283Y43433D02*
X287183D01*
X286233Y42483D02*
Y44383D01*
X194050Y42700D02*
X195950D01*
X195000Y41750D02*
Y43650D01*
X166250Y42700D02*
X168150D01*
X167200Y41750D02*
Y43650D01*
X206917Y41200D02*
X208817D01*
X207867Y40250D02*
Y42150D01*
X114550Y104076D02*
X116450D01*
X115500Y103126D02*
Y105026D01*
X388650Y175300D02*
X390550D01*
X389600Y174350D02*
Y176250D01*
X284550Y167900D02*
X286450D01*
X285500Y166950D02*
Y168850D01*
X248650Y203800D02*
X250550D01*
X249600Y202850D02*
Y204750D01*
X376650Y254300D02*
X378550D01*
X377600Y253350D02*
Y255250D01*
X153750Y246483D02*
X155650D01*
X154700Y245533D02*
Y247433D01*
X59650Y163700D02*
X61550D01*
X60600Y162750D02*
Y164650D01*
X28623Y160427D02*
X30523D01*
X29573Y159477D02*
Y161377D01*
X90550Y271601D02*
X92450D01*
X91500Y270651D02*
Y272551D01*
X285650Y242900D02*
X287550D01*
X286600Y241950D02*
Y243850D01*
X285650Y257200D02*
X287550D01*
X286600Y256250D02*
Y258150D01*
X8050Y92300D02*
X9950D01*
X9000Y91350D02*
Y93250D01*
M02*
