G04*
G04 #@! TF.GenerationSoftware,Altium Limited,Altium Designer,18.1.7 (191)*
G04*
G04 Layer_Color=32768*
%FSLAX25Y25*%
%MOIN*%
G70*
G01*
G75*
%ADD16C,0.00600*%
%ADD99C,0.00394*%
%ADD101C,0.00197*%
G36*
X362588Y26159D02*
Y22759D01*
X354288D01*
Y26159D01*
X354088D01*
Y39359D01*
X354288D01*
Y42759D01*
X362588D01*
Y39359D01*
X362788D01*
Y26159D01*
X362588D01*
D02*
G37*
G36*
X344373Y39359D02*
Y42759D01*
X352673D01*
Y39359D01*
X352873D01*
Y26159D01*
X352673D01*
Y22759D01*
X344373D01*
Y26159D01*
X344173D01*
Y39359D01*
X344373D01*
D02*
G37*
G36*
X368729Y82314D02*
Y91204D01*
X370198D01*
Y94771D01*
X380678D01*
Y91204D01*
X382146D01*
Y82314D01*
X380678D01*
Y78747D01*
X370198D01*
Y82314D01*
X368729D01*
D02*
G37*
G36*
X330019Y165593D02*
Y168993D01*
X338319D01*
Y165593D01*
X338519D01*
Y152393D01*
X338319D01*
Y148993D01*
X330019D01*
Y152393D01*
X329819D01*
Y165593D01*
X330019D01*
D02*
G37*
G36*
X328865Y152400D02*
Y149000D01*
X320565D01*
Y152400D01*
X320365D01*
Y165600D01*
X320565D01*
Y169000D01*
X328865D01*
Y165600D01*
X329065D01*
Y152400D01*
X328865D01*
D02*
G37*
D16*
X329065Y152400D02*
Y165600D01*
X328865D02*
X329065D01*
X320365D02*
X320565D01*
X320365Y152400D02*
Y165600D01*
Y152400D02*
X320565D01*
X328865D02*
X329065D01*
X328865Y149000D02*
Y152400D01*
Y165600D02*
Y169000D01*
X320565D02*
X328865D01*
X320565Y165600D02*
Y169000D01*
Y149000D02*
Y152400D01*
Y149000D02*
X328865D01*
X329819Y152393D02*
Y165593D01*
Y152393D02*
X330019D01*
X338319D02*
X338519D01*
Y165593D01*
X338319D02*
X338519D01*
X329819D02*
X330019D01*
Y168993D01*
Y148993D02*
Y152393D01*
Y148993D02*
X338319D01*
Y152393D01*
Y165593D02*
Y168993D01*
X330019D02*
X338319D01*
X362788Y26159D02*
Y39359D01*
X362588D02*
X362788D01*
X354088D02*
X354288D01*
X354088Y26159D02*
Y39359D01*
Y26159D02*
X354288D01*
X362588D02*
X362788D01*
X362588Y22759D02*
Y26159D01*
Y39359D02*
Y42759D01*
X354288D02*
X362588D01*
X354288Y39359D02*
Y42759D01*
Y22759D02*
Y26159D01*
Y22759D02*
X362588D01*
X344173Y26159D02*
Y39359D01*
Y26159D02*
X344373D01*
X352673D02*
X352873D01*
Y39359D01*
X352673D02*
X352873D01*
X344173D02*
X344373D01*
Y42759D01*
Y22759D02*
Y26159D01*
Y22759D02*
X352673D01*
Y26159D01*
Y39359D02*
Y42759D01*
X344373D02*
X352673D01*
X368729Y91204D02*
X370198D01*
Y94771D01*
X380678D01*
Y91204D02*
Y94771D01*
Y91204D02*
X382146D01*
Y82314D02*
Y91204D01*
X380678Y82314D02*
X382146D01*
X380678Y78747D02*
Y82314D01*
X370198Y78747D02*
X380678D01*
X370198D02*
Y82314D01*
X368729D02*
X370198D01*
X368729D02*
Y91204D01*
D99*
X231559Y62188D02*
Y73212D01*
X215811Y62188D02*
Y73212D01*
X231559D01*
X215811Y62188D02*
X231559D01*
X221717Y67700D02*
X225654D01*
X223685Y65731D02*
Y69668D01*
X225000Y102932D02*
Y106869D01*
X223032Y104900D02*
X226969D01*
X166800Y64531D02*
Y68468D01*
X164832Y66500D02*
X168769D01*
X158926Y72012D02*
X174674D01*
X158926Y60988D02*
X174674D01*
X158926D02*
Y72012D01*
X174674Y60988D02*
Y72012D01*
X163932Y31700D02*
X167869D01*
X165900Y29731D02*
Y33668D01*
X69605Y105495D02*
X73542D01*
X71574Y103527D02*
Y107464D01*
X67833Y97621D02*
Y113369D01*
X75314Y97621D02*
Y113369D01*
X67833Y97621D02*
X75314D01*
X67833Y113369D02*
X75314D01*
X41074Y106827D02*
Y110764D01*
X39105Y108795D02*
X43042D01*
X33199Y105055D02*
X48948D01*
X33199Y112535D02*
X48948D01*
Y105055D02*
Y112535D01*
X33199Y105055D02*
Y112535D01*
X41556Y80709D02*
Y84646D01*
X39587Y82677D02*
X43524D01*
X7605Y92295D02*
X11542D01*
X9574Y90327D02*
Y94264D01*
X13314Y84421D02*
Y100169D01*
X5833Y84421D02*
Y100169D01*
X13314D01*
X5833Y84421D02*
X13314D01*
X7605Y75595D02*
X11542D01*
X9574Y73627D02*
Y77564D01*
X15085Y67721D02*
Y83469D01*
X4062Y67721D02*
Y83469D01*
X15085D01*
X4062Y67721D02*
X15085D01*
X86424Y152912D02*
Y156849D01*
X84455Y154881D02*
X88392D01*
X78550Y158621D02*
X94298D01*
X78550Y151141D02*
X94298D01*
Y158621D01*
X78550Y151141D02*
Y158621D01*
X86424Y184712D02*
Y188649D01*
X84455Y186681D02*
X88392D01*
X78550Y190421D02*
X94298D01*
X78550Y182941D02*
X94298D01*
Y190421D01*
X78550Y182941D02*
Y190421D01*
X86424Y160912D02*
Y164849D01*
X84455Y162881D02*
X88392D01*
X78550Y166621D02*
X94298D01*
X78550Y159141D02*
X94298D01*
Y166621D01*
X78550Y159141D02*
Y166621D01*
X86424Y168712D02*
Y172649D01*
X84455Y170681D02*
X88392D01*
X78550Y174421D02*
X94298D01*
X78550Y166941D02*
X94298D01*
Y174421D01*
X78550Y166941D02*
Y174421D01*
X86424Y176512D02*
Y180449D01*
X84455Y178481D02*
X88392D01*
X78550Y182221D02*
X94298D01*
X78550Y174741D02*
X94298D01*
Y182221D01*
X78550Y174741D02*
Y182221D01*
X71386Y142553D02*
Y212553D01*
X6386Y142553D02*
Y212553D01*
X71386D01*
X6386Y142553D02*
X71386D01*
X22417Y177553D02*
X26354D01*
X24386Y175585D02*
Y179522D01*
X304780Y21774D02*
Y25711D01*
X302812Y23742D02*
X306749D01*
X322900Y52203D02*
Y56140D01*
X320932Y54172D02*
X324869D01*
X325936Y71464D02*
Y75401D01*
X323968Y73432D02*
X327905D01*
X318062Y77172D02*
X333810D01*
X318062Y69692D02*
X333810D01*
X318062D02*
Y77172D01*
X333810Y69692D02*
Y77172D01*
X303500Y114703D02*
Y118640D01*
X301532Y116672D02*
X305469D01*
X301300Y94632D02*
Y98569D01*
X299332Y96600D02*
X303269D01*
X293426Y92860D02*
X309174D01*
X293426Y100340D02*
X309174D01*
Y92860D02*
Y100340D01*
X293426Y92860D02*
Y100340D01*
X301076Y84379D02*
Y88316D01*
X299108Y86348D02*
X303045D01*
X293202Y91859D02*
X308950D01*
X293202Y80836D02*
X308950D01*
X293202D02*
Y91859D01*
X308950Y80836D02*
Y91859D01*
X297060Y66374D02*
X304540D01*
X297060Y50626D02*
X304540D01*
Y66374D01*
X297060Y50626D02*
Y66374D01*
X300800Y56531D02*
Y60468D01*
X298831Y58500D02*
X302769D01*
X325184Y17381D02*
Y21318D01*
X323215Y19349D02*
X327152D01*
X370784Y194607D02*
X378264D01*
X370784Y210355D02*
X378264D01*
X370784Y194607D02*
Y210355D01*
X378264Y194607D02*
Y210355D01*
X374524Y200512D02*
Y204449D01*
X372556Y202481D02*
X376493D01*
X371106Y167407D02*
X378586D01*
X371106Y183155D02*
X378586D01*
X371106Y167407D02*
Y183155D01*
X378586Y167407D02*
Y183155D01*
X374846Y173312D02*
Y177249D01*
X372878Y175281D02*
X376815D01*
X340003Y167874D02*
X351027D01*
X340003Y152126D02*
X351027D01*
Y167874D01*
X340003Y152126D02*
Y167874D01*
X345515Y158031D02*
Y161968D01*
X343547Y160000D02*
X347484D01*
X320641Y134688D02*
Y145712D01*
X336389Y134688D02*
Y145712D01*
X320641D02*
X336389D01*
X320641Y134688D02*
X336389D01*
X326547Y140200D02*
X330484D01*
X328515Y138232D02*
Y142169D01*
X310115Y151631D02*
Y155569D01*
X308147Y153600D02*
X312084D01*
X302241Y149860D02*
X317989D01*
X302241Y157340D02*
X317989D01*
Y149860D02*
Y157340D01*
X302241Y149860D02*
Y157340D01*
X310115Y160031D02*
Y163969D01*
X308147Y162000D02*
X312084D01*
X302241Y158260D02*
X317989D01*
X302241Y165740D02*
X317989D01*
Y158260D02*
Y165740D01*
X302241Y158260D02*
Y165740D01*
X326021Y81164D02*
Y85101D01*
X324053Y83132D02*
X327990D01*
X318147Y77620D02*
X333895D01*
X318147Y88644D02*
X333895D01*
Y77620D02*
Y88644D01*
X318147Y77620D02*
Y88644D01*
X297184Y8908D02*
Y12845D01*
X295215Y10877D02*
X299152D01*
X289310Y14617D02*
X305058D01*
X289310Y7137D02*
X305058D01*
X289310D02*
Y14617D01*
X305058Y7137D02*
Y14617D01*
X325184Y31109D02*
Y35046D01*
X323215Y33077D02*
X327152D01*
X317310Y27565D02*
X333058D01*
X317310Y38589D02*
X333058D01*
Y27565D02*
Y38589D01*
X317310Y27565D02*
Y38589D01*
X79809Y269633D02*
Y273570D01*
X77841Y271601D02*
X81778D01*
X71935Y275341D02*
X87683D01*
X71935Y267861D02*
X87683D01*
Y275341D01*
X71935Y267861D02*
Y275341D01*
X106609Y269633D02*
Y273570D01*
X104641Y271601D02*
X108578D01*
X98735Y275341D02*
X114483D01*
X98735Y267861D02*
X114483D01*
Y275341D01*
X98735Y267861D02*
Y275341D01*
X133009Y269633D02*
Y273570D01*
X131041Y271601D02*
X134978D01*
X125135Y275341D02*
X140883D01*
X125135Y267861D02*
X140883D01*
Y275341D01*
X125135Y267861D02*
Y275341D01*
X160009Y269633D02*
Y273570D01*
X158041Y271601D02*
X161978D01*
X152135Y275341D02*
X167883D01*
X152135Y267861D02*
X167883D01*
Y275341D01*
X152135Y267861D02*
Y275341D01*
X186809Y269633D02*
Y273570D01*
X184841Y271601D02*
X188778D01*
X178935Y275341D02*
X194683D01*
X178935Y267861D02*
X194683D01*
Y275341D01*
X178935Y267861D02*
Y275341D01*
X213209Y269633D02*
Y273570D01*
X211241Y271601D02*
X215178D01*
X205335Y275341D02*
X221083D01*
X205335Y267861D02*
X221083D01*
Y275341D01*
X205335Y267861D02*
Y275341D01*
X240209Y269633D02*
Y273570D01*
X238241Y271601D02*
X242178D01*
X232335Y275341D02*
X248083D01*
X232335Y267861D02*
X248083D01*
Y275341D01*
X232335Y267861D02*
Y275341D01*
X267209Y269633D02*
Y273570D01*
X265241Y271601D02*
X269178D01*
X259335Y275341D02*
X275083D01*
X259335Y267861D02*
X275083D01*
Y275341D01*
X259335Y267861D02*
Y275341D01*
X247224Y209313D02*
Y213250D01*
X245256Y211281D02*
X249193D01*
X239350Y205769D02*
X255098D01*
X239350Y216793D02*
X255098D01*
X239350Y205769D02*
Y216793D01*
X255098Y205769D02*
Y216793D01*
X186939Y238512D02*
Y242449D01*
X184971Y240481D02*
X188908D01*
X179065Y244221D02*
X194813D01*
X179065Y236741D02*
X194813D01*
Y244221D01*
X179065Y236741D02*
Y244221D01*
X186939Y247112D02*
Y251049D01*
X184971Y249081D02*
X188908D01*
X179065Y252821D02*
X194813D01*
X179065Y245341D02*
X194813D01*
Y252821D01*
X179065Y245341D02*
Y252821D01*
X186939Y255712D02*
Y259649D01*
X184971Y257681D02*
X188908D01*
X179065Y261421D02*
X194813D01*
X179065Y253941D02*
X194813D01*
Y261421D01*
X179065Y253941D02*
Y261421D01*
X159056Y252881D02*
X162993D01*
X161024Y250912D02*
Y254849D01*
X290615Y29077D02*
X294552D01*
X292584Y27109D02*
Y31046D01*
X296324Y21203D02*
Y36951D01*
X288843Y21203D02*
Y36951D01*
X296324D01*
X288843Y21203D02*
X296324D01*
X364469Y69759D02*
X368406D01*
X366438Y67791D02*
Y71728D01*
X370178Y61885D02*
Y77633D01*
X362698Y61885D02*
Y77633D01*
X370178D01*
X362698Y61885D02*
X370178D01*
X353638Y73090D02*
Y77028D01*
X351669Y75059D02*
X355606D01*
X345764Y78799D02*
X361512D01*
X345764Y71319D02*
X361512D01*
X345764D02*
Y78799D01*
X361512Y71319D02*
Y78799D01*
X305384Y32508D02*
Y36446D01*
X303415Y34477D02*
X307352D01*
X297510Y30737D02*
X313258D01*
X297510Y38217D02*
X313258D01*
Y30737D02*
Y38217D01*
X297510Y30737D02*
Y38217D01*
X353383Y84083D02*
Y88020D01*
X351415Y86051D02*
X355352D01*
X345509Y91563D02*
X361257D01*
X345509Y80539D02*
X361257D01*
X345509D02*
Y91563D01*
X361257Y80539D02*
Y91563D01*
X353838Y62190D02*
Y66127D01*
X351869Y64159D02*
X355806D01*
X345964Y69671D02*
X361712D01*
X345964Y58647D02*
X361712D01*
X345964D02*
Y69671D01*
X361712Y58647D02*
Y69671D01*
X353838Y49990D02*
Y53927D01*
X351869Y51959D02*
X355806D01*
X345964Y57471D02*
X361712D01*
X345964Y46447D02*
X361712D01*
X345964D02*
Y57471D01*
X361712Y46447D02*
Y57471D01*
X353983Y12283D02*
Y16220D01*
X352015Y14251D02*
X355952D01*
X346109Y8739D02*
X361857D01*
X346109Y19763D02*
X361857D01*
Y8739D02*
Y19763D01*
X346109Y8739D02*
Y19763D01*
X372638Y15191D02*
Y19128D01*
X370669Y17159D02*
X374606D01*
X364764Y13419D02*
X380512D01*
X364764Y20899D02*
X380512D01*
Y13419D02*
Y20899D01*
X364764Y13419D02*
Y20899D01*
X372638Y25591D02*
Y29528D01*
X370669Y27559D02*
X374606D01*
X364764Y22047D02*
X380512D01*
X364764Y33071D02*
X380512D01*
Y22047D02*
Y33071D01*
X364764Y22047D02*
Y33071D01*
X372638Y37791D02*
Y41728D01*
X370669Y39759D02*
X374606D01*
X364764Y34247D02*
X380512D01*
X364764Y45271D02*
X380512D01*
Y34247D02*
Y45271D01*
X364764Y34247D02*
Y45271D01*
X370438Y49991D02*
Y53928D01*
X368469Y51959D02*
X372406D01*
X362564Y46447D02*
X378312D01*
X362564Y57471D02*
X378312D01*
Y46447D02*
Y57471D01*
X362564Y46447D02*
Y57471D01*
X274624Y252913D02*
Y256850D01*
X272656Y254881D02*
X276593D01*
X266750Y251141D02*
X282498D01*
X266750Y258621D02*
X282498D01*
X266750Y251141D02*
Y258621D01*
X282498Y251141D02*
Y258621D01*
X274624Y242513D02*
Y246450D01*
X272656Y244481D02*
X276593D01*
X266750Y238969D02*
X282498D01*
X266750Y249993D02*
X282498D01*
X266750Y238969D02*
Y249993D01*
X282498Y238969D02*
Y249993D01*
X274624Y222312D02*
Y226249D01*
X272656Y224281D02*
X276593D01*
X266750Y229793D02*
X282498D01*
X266750Y218769D02*
X282498D01*
Y229793D01*
X266750Y218769D02*
Y229793D01*
X274624Y232312D02*
Y236250D01*
X272656Y234281D02*
X276593D01*
X266750Y238021D02*
X282498D01*
X266750Y230541D02*
X282498D01*
Y238021D01*
X266750Y230541D02*
Y238021D01*
X292424Y248412D02*
Y252350D01*
X290456Y250381D02*
X294393D01*
X248824Y251513D02*
Y255450D01*
X246856Y253481D02*
X250793D01*
X240950Y249741D02*
X256698D01*
X240950Y257221D02*
X256698D01*
X240950Y249741D02*
Y257221D01*
X256698Y249741D02*
Y257221D01*
X249424Y231312D02*
Y235249D01*
X247456Y233281D02*
X251393D01*
X312167Y184731D02*
X316104D01*
X314136Y182763D02*
Y186700D01*
X308624Y176857D02*
Y192605D01*
X319648Y176857D02*
Y192605D01*
X308624D02*
X319648D01*
X308624Y176857D02*
X319648D01*
X311968Y205346D02*
X315905D01*
X313936Y203378D02*
Y207315D01*
X319448Y197472D02*
Y213220D01*
X308424Y197472D02*
Y213220D01*
Y197472D02*
X319448D01*
X308424Y213220D02*
X319448D01*
X353317Y189881D02*
X357254D01*
X355286Y187912D02*
Y191849D01*
X358386Y241071D02*
Y245008D01*
X356417Y243040D02*
X360354D01*
X350512Y246780D02*
X366260D01*
X350512Y239300D02*
X366260D01*
Y246780D01*
X350512Y239300D02*
Y246780D01*
X358386Y232871D02*
Y236808D01*
X356417Y234840D02*
X360354D01*
X350512Y238580D02*
X366260D01*
X350512Y231100D02*
X366260D01*
Y238580D01*
X350512Y231100D02*
Y238580D01*
X358386Y249230D02*
Y253167D01*
X356417Y251199D02*
X360354D01*
X350512Y254939D02*
X366260D01*
X350512Y247459D02*
X366260D01*
Y254939D01*
X350512Y247459D02*
Y254939D01*
D101*
X209646Y93876D02*
X240354D01*
X209646Y115924D02*
X240354D01*
X209646Y93876D02*
Y115924D01*
X240354Y93876D02*
Y115924D01*
X181254Y20676D02*
Y42724D01*
X150546Y20676D02*
Y42724D01*
Y20676D02*
X181254D01*
X150546Y42724D02*
X181254D01*
X18327Y61024D02*
X64784D01*
X18327Y104331D02*
X64784D01*
Y61024D02*
Y104331D01*
X18327Y61024D02*
Y104331D01*
X296710Y30238D02*
X312851D01*
X296710Y17246D02*
X312851D01*
X296710D02*
Y30238D01*
X312851Y17246D02*
Y30238D01*
X312073Y68739D02*
X333727D01*
X312073Y39605D02*
X333727D01*
Y68739D01*
X312073Y39605D02*
Y68739D01*
X292673Y102105D02*
X314327D01*
X292673Y131239D02*
X314327D01*
X292673Y102105D02*
Y131239D01*
X314327Y102105D02*
Y131239D01*
X316916Y12263D02*
X333451D01*
X316916Y26436D02*
X333451D01*
Y12263D02*
Y26436D01*
X316916Y12263D02*
Y26436D01*
X145670Y241857D02*
Y263904D01*
X176379Y241857D02*
Y263904D01*
X145670Y241857D02*
X176379D01*
X145670Y263904D02*
X176379D01*
X284156Y257271D02*
X300692D01*
X284156Y243491D02*
X300692D01*
Y257271D01*
X284156Y243491D02*
Y257271D01*
X238597Y247848D02*
X260251D01*
X238597Y218714D02*
X260251D01*
X238597D02*
Y247848D01*
X260251Y218714D02*
Y247848D01*
X322510Y168424D02*
Y211337D01*
X388061Y168424D02*
Y211337D01*
X322510Y168424D02*
X388061D01*
X322510Y211337D02*
X388061D01*
M02*
