G04*
G04 #@! TF.GenerationSoftware,Altium Limited,Altium Designer,18.1.7 (191)*
G04*
G04 Layer_Color=128*
%FSLAX25Y25*%
%MOIN*%
G70*
G01*
G75*
%ADD25R,0.04331X0.10236*%
%ADD26O,0.05512X0.01772*%
%ADD28R,0.04331X0.06693*%
%ADD30R,0.10236X0.04331*%
%ADD34O,0.02362X0.05709*%
%ADD69R,0.05906X0.05906*%
%ADD76R,0.06299X0.02756*%
%ADD77R,0.08661X0.06693*%
%ADD78R,0.05512X0.07087*%
%ADD79R,0.05512X0.04724*%
%ADD80O,0.01200X0.03900*%
%ADD81R,0.01200X0.03900*%
%ADD82R,0.03937X0.02559*%
%ADD83R,0.14370X0.03937*%
%ADD84R,0.31102X0.40945*%
%ADD85R,0.06102X0.01575*%
%ADD86R,0.07480X0.07087*%
D25*
X229000Y67700D02*
D03*
X218370D02*
D03*
X241909Y211281D02*
D03*
X252539D02*
D03*
X269309Y244481D02*
D03*
X279939D02*
D03*
Y224281D02*
D03*
X269309D02*
D03*
D26*
X213386Y95943D02*
D03*
Y98502D02*
D03*
Y101062D02*
D03*
Y103621D02*
D03*
Y106180D02*
D03*
Y108739D02*
D03*
Y111298D02*
D03*
Y113857D02*
D03*
X236614Y95943D02*
D03*
Y98502D02*
D03*
Y101062D02*
D03*
Y103621D02*
D03*
Y106180D02*
D03*
Y108739D02*
D03*
Y111298D02*
D03*
Y113857D02*
D03*
X149410Y243924D02*
D03*
Y246483D02*
D03*
Y249042D02*
D03*
Y251601D02*
D03*
Y254160D02*
D03*
Y256719D02*
D03*
Y259278D02*
D03*
Y261838D02*
D03*
X172638Y243924D02*
D03*
Y246483D02*
D03*
Y249042D02*
D03*
Y251601D02*
D03*
Y254160D02*
D03*
Y256719D02*
D03*
Y259278D02*
D03*
Y261838D02*
D03*
D28*
X91739Y154881D02*
D03*
X81109D02*
D03*
X91739Y186681D02*
D03*
X81109D02*
D03*
X91739Y162881D02*
D03*
X81109D02*
D03*
X91739Y170681D02*
D03*
X81109D02*
D03*
X91739Y178481D02*
D03*
X81109D02*
D03*
X85124Y271601D02*
D03*
X74494D02*
D03*
X111924D02*
D03*
X101294D02*
D03*
X138324D02*
D03*
X127694D02*
D03*
X165324D02*
D03*
X154694D02*
D03*
X192124D02*
D03*
X181494D02*
D03*
X218524D02*
D03*
X207894D02*
D03*
X245524D02*
D03*
X234894D02*
D03*
X272524D02*
D03*
X261894D02*
D03*
X192254Y240481D02*
D03*
X181624D02*
D03*
X192254Y249081D02*
D03*
X181624D02*
D03*
X192254Y257681D02*
D03*
X181624D02*
D03*
X269309Y254881D02*
D03*
X279939D02*
D03*
Y234281D02*
D03*
X269309D02*
D03*
X243509Y253481D02*
D03*
X254139D02*
D03*
X363701Y243040D02*
D03*
X353071D02*
D03*
X363701Y234840D02*
D03*
X353071D02*
D03*
X363701Y251199D02*
D03*
X353071D02*
D03*
D30*
X314136Y190046D02*
D03*
Y179416D02*
D03*
X313936Y200031D02*
D03*
Y210661D02*
D03*
D34*
X241924Y244009D02*
D03*
X246924D02*
D03*
X251924D02*
D03*
X256924D02*
D03*
X241924Y222553D02*
D03*
X246924D02*
D03*
X251924D02*
D03*
X256924D02*
D03*
D69*
X261938Y282001D02*
D03*
X275718D02*
D03*
X234938D02*
D03*
X248718D02*
D03*
X207938Y281801D02*
D03*
X221718D02*
D03*
X181338D02*
D03*
X195118D02*
D03*
X154738D02*
D03*
X168518D02*
D03*
X127938D02*
D03*
X141718D02*
D03*
X101338Y282001D02*
D03*
X115118D02*
D03*
X74538Y281801D02*
D03*
X88318D02*
D03*
D76*
X67724Y186412D02*
D03*
Y182081D02*
D03*
Y177750D02*
D03*
Y173419D02*
D03*
Y169089D02*
D03*
Y164758D02*
D03*
Y160427D02*
D03*
Y151766D02*
D03*
Y156097D02*
D03*
D77*
X25960Y208065D02*
D03*
Y147042D02*
D03*
D78*
X63756Y204522D02*
D03*
D79*
Y146042D02*
D03*
D80*
X288724Y237381D02*
D03*
X291224D02*
D03*
X293724D02*
D03*
X296224D02*
D03*
X288724Y211381D02*
D03*
X291224D02*
D03*
X293724D02*
D03*
D81*
X296224D02*
D03*
D82*
X297739Y246641D02*
D03*
Y250381D02*
D03*
Y254121D02*
D03*
X287109D02*
D03*
Y250381D02*
D03*
Y246641D02*
D03*
D83*
X330679Y179881D02*
D03*
Y189881D02*
D03*
Y199881D02*
D03*
D84*
X371624Y189881D02*
D03*
D85*
X372924Y245599D02*
D03*
Y243040D02*
D03*
Y248158D02*
D03*
Y237922D02*
D03*
Y240481D02*
D03*
D86*
X383751Y227095D02*
D03*
Y258985D02*
D03*
M02*
